<svg fill="none" version="1.1" viewBox="0 0 24 24" xmlns="http://www.w3.org/2000/svg">
 <path d="m12 22c5.523 0 10-4.477 10-10s-4.477-10-10-10-10 4.477-10 10 4.477 10 10 10z" stroke="#fff" stroke-linecap="round" stroke-linejoin="round" stroke-width="1.5"/>
 <path d="m12.33 17.45c-0.18 0.06-0.49 0.06-0.67 0-1.56-0.53-5.06-2.76-5.06-6.54 0-1.67 1.34-3.02 3-3.02 0.98 0 1.85 0.47001 2.4 1.21 0.54-0.73 1.42-1.21 2.4-1.21 1.66 0 3 1.35 3 3.02 0 3.78-3.5 6.01-5.07 6.54z" stroke="#fff" stroke-linecap="round" stroke-linejoin="round" stroke-width="1.5"/>
</svg>
