<svg fill="none" version="1.1" viewBox="0 0 24 24" xmlns="http://www.w3.org/2000/svg">
 <g stroke="#fff" stroke-linecap="round" stroke-linejoin="round" stroke-miterlimit="10" stroke-width="1.5">
  <path d="m19.3 7.92v5.15c0 3.08-1.76 4.4-4.4 4.4h-8.79c-0.45 0-0.88-0.04-1.28-0.13-0.25-0.04-0.49-0.11-0.71-0.19-1.5-0.56-2.41-1.86-2.41-4.08v-5.15c0-3.08 1.76-4.4 4.4-4.4h8.79c2.24 0 3.85 0.95 4.28 3.12 0.07 0.4 0.12 0.81 0.12 1.28z"/>
  <path d="m22.301 10.92v5.15c0 3.08-1.76 4.4-4.4 4.4h-8.79c-0.74 0-1.41-0.1-1.99-0.32-1.19-0.44-2-1.35-2.29-2.81 0.4 0.09 0.83 0.13 1.28 0.13h8.79c2.64 0 4.4-1.32 4.4-4.4v-5.15c0-0.47-0.04-0.89-0.12-1.28 1.9 0.4 3.12 1.74 3.12 4.28z"/>
  <path d="m4.78 8.3v4.4m11.442-4.4v4.4m-5.724 0.44c0.7002 0 1.3717-0.2782 1.8668-0.7733 0.4951-0.495 0.7732-1.1665 0.7732-1.8667 0-0.70019-0.2781-1.3717-0.7732-1.8668-0.4951-0.49509-1.1666-0.77323-1.8668-0.77323-0.70014 0-1.3716 0.27814-1.8667 0.77323-0.4951 0.4951-0.77324 1.1666-0.77324 1.8668 0 0.7002 0.27814 1.3717 0.77324 1.8667 0.49509 0.4951 1.1666 0.7733 1.8667 0.7733z"/>
 </g>
</svg>
