<svg fill="none" version="1.1" viewBox="0 0 24 24" xmlns="http://www.w3.org/2000/svg">
 <path d="m8.0001 6v-0.8c0-1.77 0-3.2 3.2-3.2h1.6c3.2 0 3.2 1.43 3.2 3.2v0.8m-8 16h8c4.02 0 4.74-1.61 4.95-3.57l0.75-8c0.27-2.44-0.43-4.43-4.7-4.43h-10c-4.27 0-4.97 1.99-4.7 4.43l0.75 8c0.21 1.96 0.93 3.57 4.95 3.57z" stroke="#fff" stroke-linecap="round" stroke-linejoin="round" stroke-miterlimit="10" stroke-width="1.5"/>
 <path d="m14 14.02v-1.02c0-1 0-1-1-1h-2c-1 0-1 0-1 1v1.03m4-0.01c0 1.09-0.01 1.98-2 1.98-1.98 0-2-0.88-2-1.97m4-0.01c2.7642-0.3441 5.3961-1.3831 7.65-3.02m-11.65 3.03c-2.59-0.29-5.13-1.22-7.38-2.76" stroke="#fff" stroke-linecap="round" stroke-linejoin="round" stroke-miterlimit="10" stroke-width="1.5"/>
</svg>
