<svg fill="none" version="1.1" viewBox="0 0 24 24" xmlns="http://www.w3.org/2000/svg">
 <path d="m8.9999 15 6-6m-11.011 5.66-1.52-1.52c-0.62-0.62-0.62-1.64 0-2.26l1.52-1.52c0.26-0.26 0.47-0.77 0.47-1.13v-2.15c0-0.88 0.72-1.6 1.6-1.6h2.15c0.36 0 0.87-0.21 1.13-0.47l1.52-1.52c0.62-0.62 1.64-0.62 2.26 0l1.52 1.52c0.26 0.26 0.77 0.47 1.13 0.47h2.15c0.88 0 1.6 0.72 1.6 1.6v2.15c0 0.36 0.21 0.87 0.47 1.13l1.52 1.52c0.62 0.62 0.62 1.64 0 2.26l-1.52 1.52c-0.26 0.26-0.47 0.77-0.47 1.13v2.15c0 0.88-0.72 1.6-1.6 1.6h-2.15c-0.36 0-0.87 0.21-1.13 0.47l-1.52 1.52c-0.62 0.62-1.64 0.62-2.26 0l-1.52-1.52c-0.26-0.26-0.77-0.47-1.13-0.47h-2.15c-0.88 0-1.6-0.72-1.6-1.6v-2.15c0-0.37-0.21-0.88-0.47-1.13z" stroke="#fff" stroke-linecap="round" stroke-linejoin="round" stroke-width="1.5"/>
 <path d="m14.495 14.5h9e-3m-5.009-5h8e-3" stroke="#fff" stroke-linecap="round" stroke-linejoin="round" stroke-width="2"/>
</svg>
