<svg fill="none" version="1.1" viewBox="0 0 24 24" xmlns="http://www.w3.org/2000/svg">
 <path d="m21.91 22-3.03-3.03m-1.59-14.83-0.07 3.79c-0.01 0.52 0.32 1.21 0.74 1.52l2.48 1.88c1.59 1.2 1.33 2.67-0.57 3.27l-3.23 1.01c-0.54 0.17-1.11 0.76-1.25 1.31l-0.77 2.94c-0.61 2.32-2.13 2.55-3.39 0.51l-1.76-2.85c-0.32-0.52-1.08-0.91-1.68-0.88l-3.34 0.17c-2.39 0.12-3.07-1.26-1.51-3.08l1.98-2.3c0.37-0.43 0.54-1.23 0.37-1.77l-1.01-3.23c-0.59-1.9 0.47-2.95 2.36-2.33l2.95 0.97c0.49997 0.16 1.25 0.05 1.67-0.26l3.08-2.22c1.66-1.2 2.99-0.5 2.95 1.55z" stroke="#fff" stroke-linecap="round" stroke-linejoin="round" stroke-width="1.5"/>
</svg>
