<svg width="360" height="306" viewBox="0 0 360 306" fill="none" xmlns="http://www.w3.org/2000/svg">
<path d="M195.817 197.395V196.388C195.817 196.077 195.564 195.824 195.253 195.824H171.875C170.695 195.824 169.739 196.78 169.739 197.96V199.678C169.739 200.858 170.695 201.814 171.875 201.814H195.253C195.564 201.814 195.817 201.561 195.817 201.25V200.243C195.817 199.931 195.564 199.679 195.253 199.679H172.733C172.259 199.679 171.874 199.294 171.874 198.82C171.874 198.346 172.259 197.962 172.733 197.962H195.253C195.564 197.96 195.817 197.707 195.817 197.395Z" fill="#6A2C91"/>
<path d="M194.807 197.96V199.678H172.733C172.259 199.678 171.874 199.293 171.874 198.819C171.874 198.345 172.259 197.961 172.733 197.961H194.807V197.96Z" fill="#D8ACF4"/>
<path d="M194.146 191.406V190.399C194.146 190.087 193.893 189.834 193.582 189.834H173.544C172.365 189.834 171.409 190.791 171.409 191.97V193.688C171.409 194.867 172.365 195.824 173.544 195.824H193.582C193.893 195.824 194.146 195.571 194.146 195.26V194.253C194.146 193.941 193.893 193.688 193.582 193.688H174.404C173.929 193.688 173.544 193.304 173.544 192.83C173.544 192.356 173.929 191.971 174.404 191.971H193.582C193.893 191.97 194.146 191.718 194.146 191.406Z" fill="#FE9ECC"/>
<path d="M193.404 191.97V193.688H174.404C173.929 193.688 173.544 193.303 173.544 192.829C173.544 192.355 173.929 191.97 174.404 191.97H193.404Z" fill="#FFD9E8"/>
<path d="M177.162 205.766L164.775 305.921H162.315L174.702 205.766H177.162Z" fill="#D8ACF4"/>
<path d="M209.711 305.921H207.252L196.654 220.237L194.864 205.766H197.324L199.088 220.031L209.711 305.921Z" fill="#D8ACF4"/>
<path d="M53.8177 205.766L50.5038 232.562L41.4301 305.921H38.9704L48.0178 232.772L51.3579 205.766H53.8177Z" fill="#D8ACF4"/>
<path d="M86.367 305.921H83.9073L74.5829 230.531L71.5197 205.766H73.9794L77.0171 230.326L86.367 305.921Z" fill="#D8ACF4"/>
<path d="M51.358 205.766H53.8177L50.5038 232.562L48.0178 232.772L51.358 205.766Z" fill="#B46AE2"/>
<path d="M73.9794 205.766L77.0171 230.326L74.5829 230.531L71.5197 205.766H73.9794Z" fill="#B46AE2"/>
<path d="M199.088 220.031L196.654 220.237L194.864 205.766H197.324L199.088 220.031Z" fill="#B46AE2"/>
<path d="M204.173 205.766H78.4062V201.814H204.173C205.081 201.814 205.817 202.55 205.817 203.458V204.122C205.818 205.029 205.081 205.766 204.173 205.766Z" fill="#D8ACF4"/>
<path d="M78.4063 205.766H45.1295C44.2214 205.766 43.4854 205.03 43.4854 204.122V203.458C43.4854 202.55 44.2214 201.814 45.1295 201.814H78.4063V205.766Z" fill="#C596E2"/>
<path d="M78.3786 192.202H89.4106C89.955 192.202 90.3762 192.678 90.3121 193.218L89.3792 201.014C89.3246 201.47 88.9376 201.813 88.4777 201.813H79.3122C78.8523 201.813 78.4653 201.47 78.4106 201.014L77.4778 193.218C77.4129 192.678 77.8349 192.202 78.3786 192.202Z" fill="#D8ACF4"/>
<path d="M87.6818 189.021V185.476L85.561 189.506V182.962L83.8949 187.082L82.2281 182.962V189.506L80.1073 185.476V189.021L77.0171 184.052L78.3785 192.202H83.8949H89.4105L90.7719 184.052L87.6818 189.021Z" fill="#B4D335"/>
<path d="M167.239 191.688H98.2204L105.915 150.208H174.933L167.239 191.688Z" fill="#D8ACF4"/>
<path d="M132.391 173.367H140.143L150.348 201.813H136.807L132.391 173.367Z" fill="#C596E2"/>
<path d="M132.112 199.988H109.075C108.655 199.988 108.314 200.328 108.314 200.747V201.054C108.314 201.474 108.655 201.813 109.075 201.813H132.112C132.532 201.813 132.872 201.473 132.872 201.054V200.747C132.872 200.327 132.531 199.988 132.112 199.988Z" fill="#C596E2"/>
<path d="M132.391 173.367V191.688H135.235L132.391 173.367Z" fill="#B46AE2"/>
<path d="M239.845 244.028L247.311 305.921H249.759L242.294 244.028H239.845Z" fill="#D8ACF4"/>
<path d="M272.836 244.027L273.676 250.988L280.301 305.92H282.75L276.091 250.716L275.285 244.027H272.836Z" fill="#D8ACF4"/>
<path d="M239.845 305.92H242.294L243.326 297.36L244.55 287.211L248.577 253.826L249.759 244.027H247.31L246.094 254.106L243.326 277.06L242.102 287.209L239.845 305.92Z" fill="#D8ACF4"/>
<path d="M206.854 305.92H209.303L215.097 257.88H215.097L216.768 244.027H214.319L212.616 258.148L206.854 305.92Z" fill="#D8ACF4"/>
<path d="M275.165 202.653H272.716V240.092H275.165V202.653Z" fill="#D8ACF4"/>
<path d="M241.893 202.654H239.445V240.092H241.893V202.654Z" fill="#D8ACF4"/>
<path d="M213.291 240.092H246.932C245.846 240.092 244.965 240.973 244.965 242.059C244.965 243.146 245.846 244.027 246.932 244.027H213.291C212.205 244.027 211.324 243.146 211.324 242.059C211.324 240.973 212.205 240.092 213.291 240.092Z" fill="#D8ACF4"/>
<path d="M244.965 242.059C244.965 240.973 245.847 240.092 246.933 240.092H272.665H275.98C277.067 240.092 277.948 240.973 277.948 242.059C277.948 243.146 277.067 244.027 275.98 244.027H272.665H246.933C245.846 244.027 244.965 243.146 244.965 242.059Z" fill="#C596E2"/>
<path d="M237.445 174.478H277.166C278.68 174.478 279.908 175.706 279.908 177.22V199.911C279.908 201.425 278.68 202.653 277.166 202.653H237.445C235.93 202.653 234.702 201.425 234.702 199.911V177.22C234.702 175.706 235.93 174.478 237.445 174.478Z" fill="#D8ACF4"/>
<path d="M272.836 244.027L273.675 250.988C274.56 250.888 275.368 250.797 276.091 250.716L275.284 244.027H272.836Z" fill="#B46AE2"/>
<path d="M247.31 244.027L246.094 254.107C246.926 254.013 247.754 253.919 248.577 253.827L249.759 244.027H247.31Z" fill="#B46AE2"/>
<path d="M212.616 258.148C213.406 258.063 214.234 257.974 215.097 257.88H215.097L216.768 244.027H214.319L212.616 258.148Z" fill="#B46AE2"/>
<path d="M275.165 202.654H272.716V207.824L275.165 207.553V202.654Z" fill="#B46AE2"/>
<path d="M239.445 202.654V211.507L241.893 211.236V202.654H239.445Z" fill="#B46AE2"/>
<path d="M226.187 144.087C227.096 155.115 235.107 162.028 239.808 162.028C240.514 162.028 241.282 161.902 242.084 161.682V167.182H254.009V153.198C254.119 152.908 254.226 152.588 254.331 152.246C259.617 151.741 259.398 143.004 256.257 143.004C255.686 143.004 255.304 143.544 255.063 144.088L254.283 144.867V140.92C254.283 140.92 252.529 141.085 249.075 135.822C247.584 138.082 235.696 141.633 226.157 140.043C226.157 140.043 226.132 142.006 226.187 144.087Z" fill="#FCBEB7"/>
<path d="M240.631 125.075C248.855 125.075 250.5 129.461 250.5 129.461C254.009 129.461 259.382 135.876 256.147 143.003L256.13 143.02L254.283 144.868V140.92C254.283 140.92 252.528 141.085 249.074 135.822C247.583 138.082 235.696 141.633 226.156 140.043C226.156 140.043 226.132 142.006 226.186 144.087C226.186 144.089 226.186 144.091 226.186 144.094C222.624 133.786 229.776 125.075 240.631 125.075Z" fill="#311643"/>
<path d="M244.167 147.098C244.531 147.098 244.826 146.803 244.826 146.439V145.211C244.826 144.847 244.531 144.553 244.167 144.553C243.804 144.553 243.509 144.847 243.509 145.211V146.439C243.509 146.803 243.804 147.098 244.167 147.098Z" fill="#311643"/>
<path d="M231.969 147.098C232.332 147.098 232.627 146.803 232.627 146.439V145.211C232.627 144.847 232.332 144.553 231.969 144.553C231.605 144.553 231.31 144.847 231.31 145.211V146.439C231.31 146.803 231.605 147.098 231.969 147.098Z" fill="#311643"/>
<path d="M239.33 154.777C240.504 154.777 241.304 154.335 241.789 153.933C242.399 153.426 242.653 152.873 242.664 152.849C242.732 152.698 242.665 152.519 242.513 152.451C242.361 152.382 242.184 152.45 242.114 152.601C242.08 152.675 241.246 154.424 238.823 154.144C238.658 154.126 238.508 154.243 238.489 154.409C238.469 154.575 238.588 154.724 238.753 154.743C238.955 154.766 239.147 154.777 239.33 154.777Z" fill="#311643"/>
<path d="M248.535 152.553C250.332 152.553 251.789 151.096 251.789 149.299C251.789 147.503 250.332 146.046 248.535 146.046C246.738 146.046 245.282 147.503 245.282 149.299C245.282 151.096 246.738 152.553 248.535 152.553Z" fill="#F49795"/>
<path d="M226.525 146.598C226.938 148.783 227.629 150.775 228.502 152.548C230.223 152.463 231.591 151.041 231.591 149.299C231.591 147.503 230.135 146.047 228.338 146.047C227.667 146.046 227.043 146.25 226.525 146.598Z" fill="#F49795"/>
<path d="M227.359 144.016C227.359 146.558 229.427 148.625 231.969 148.625C234.452 148.625 236.482 146.651 236.574 144.19C237.953 143.409 239.18 143.97 239.561 144.186C239.652 146.649 241.682 148.625 244.167 148.625C246.709 148.625 248.776 146.558 248.776 144.016C248.776 141.473 246.708 139.406 244.167 139.406C241.792 139.406 239.832 141.21 239.584 143.52C238.982 143.244 237.843 142.914 236.551 143.522C236.304 141.211 234.343 139.406 231.968 139.406C229.427 139.406 227.359 141.473 227.359 144.016ZM240.16 144.016C240.16 141.806 241.958 140.008 244.167 140.008C246.377 140.008 248.174 141.806 248.174 144.016C248.174 146.225 246.377 148.023 244.167 148.023C241.958 148.023 240.16 146.225 240.16 144.016ZM227.962 144.016C227.962 141.806 229.759 140.008 231.969 140.008C234.178 140.008 235.976 141.806 235.976 144.016C235.976 146.225 234.178 148.023 231.969 148.023C229.759 148.023 227.962 146.225 227.962 144.016Z" fill="white"/>
<path d="M242.084 167.182V161.682C244.781 160.941 247.851 159.125 250.158 157.394L242.084 167.182Z" fill="#F9AFAB"/>
<path d="M208.203 261.206L210.693 260.865L213.05 241.317H210.602L208.203 261.206Z" fill="#EBEDF4"/>
<path d="M214.816 186.504L212.654 190.649H224.179L214.816 186.504Z" fill="#FCBEB7"/>
<path d="M236.892 295.111V304.036C236.892 305.077 236.048 305.92 235.007 305.92H209.693C209.452 305.92 209.257 305.725 209.257 305.484V303.839C209.257 303.046 209.72 302.324 210.441 301.994L225.078 295.11H236.892V295.111Z" fill="#8D46AE"/>
<path d="M236.892 290.033L236.885 295.111H225.079L224.262 290.033H236.892Z" fill="#FCBEB7"/>
<path d="M242.105 161.995L226.076 169.235C223.872 170.23 222.079 171.955 220.999 174.119L214.816 186.503L224.179 190.648L223.404 218.022H270.062L268.025 192.457L276.463 192.511V178.523C276.463 174.19 273.86 170.283 269.862 168.613L254.009 161.994C254.009 161.995 247.083 166.539 242.105 161.995Z" fill="#C59AE0"/>
<path d="M238.269 163.66C240.8 165.78 243.963 166.934 247.303 166.934C250.819 166.934 254.286 165.531 256.878 163.193L256.368 162.98C253.887 165.156 250.633 166.452 247.302 166.452C244.158 166.452 241.177 165.393 238.765 163.444L238.269 163.66Z" fill="white"/>
<path d="M212.049 295.111V304.036C212.049 305.077 211.205 305.92 210.164 305.92H184.85C184.609 305.92 184.414 305.725 184.414 305.484V303.839C184.414 303.046 184.877 302.324 185.598 301.994L200.235 295.11H212.049V295.111Z" fill="#8D46AE"/>
<path d="M212.049 290.033L212.043 295.111H200.236L199.42 290.033H212.049Z" fill="#FCBEB7"/>
<path d="M245.221 218.023L245.221 218.5C245.231 230.49 235.514 240.214 223.523 240.214H213.444L212.049 290.032H199.419L190.107 230.632C189.069 224.008 194.19 218.023 200.894 218.023H245.221V218.023Z" fill="#6A2C91"/>
<path d="M189.974 228.968C191.061 230.559 192.891 231.603 194.965 231.603C198.303 231.603 201.009 228.897 201.009 225.558C201.009 222.352 198.513 219.729 195.359 219.527C192.102 221.447 189.956 225.003 189.974 228.968Z" fill="#49146A"/>
<path d="M214.818 228.735L213.444 240.215H221.714L214.818 228.735Z" fill="#49146A"/>
<path d="M270.063 218.023V218.5C270.073 230.49 260.356 240.214 248.365 240.214H238.286L236.891 290.032H224.261L214.949 230.632C213.911 224.008 219.032 218.023 225.737 218.023H270.063V218.023Z" fill="#6A2C91"/>
<path d="M276.462 192.512L276.013 208.016C275.893 212.206 272.461 215.54 268.268 215.54H241.28L239.468 209.228L263.274 205.304L263.442 192.428L276.462 192.512Z" fill="#FCBEB7"/>
<path d="M268.459 212.316C268.459 213.541 269.01 214.639 269.878 215.373C272.668 214.783 274.909 212.692 275.704 209.973C274.978 208.968 273.796 208.314 272.461 208.314C270.25 208.313 268.459 210.106 268.459 212.316Z" fill="#F9AFAB"/>
<path d="M263.442 192.428L259.787 205.879L263.274 205.304L263.442 192.428Z" fill="#D34ACE"/>
<path d="M242.794 208.68L247.048 215.54H241.28L239.468 209.228L242.794 208.68Z" fill="#F9AFAB"/>
<path d="M196.417 190.649H231.609C233.104 190.649 234.419 191.64 234.831 193.077L241.28 215.539H255.55C256.236 215.539 256.792 216.096 256.792 216.781C256.792 217.467 256.236 218.023 255.55 218.023H241.993H237.682H199.824L193.194 194.927C192.579 192.785 194.188 190.649 196.417 190.649Z" fill="#49146A"/>
<path d="M214.817 228.735C215.882 230.457 217.787 231.603 219.961 231.603C223.299 231.603 226.005 228.897 226.005 225.558C226.005 222.305 223.436 219.651 220.214 219.519C217.013 221.401 214.883 224.859 214.817 228.735Z" fill="#49146A"/>
<path d="M215.974 207.217C216.693 207.154 217.201 206.252 217.108 205.203C217.016 204.155 216.359 203.355 215.64 203.418C214.922 203.482 214.414 204.383 214.506 205.432C214.599 206.481 215.256 207.28 215.974 207.217Z" fill="#C59AE0"/>
<path d="M269.383 174.306C269.383 176.261 270.969 177.846 272.923 177.846C274.334 177.846 275.55 177.022 276.119 175.829C275.619 173.897 274.589 172.148 273.159 170.775C273.081 170.77 273.003 170.767 272.923 170.767C270.968 170.767 269.383 172.352 269.383 174.306Z" fill="#D34ACE"/>
<path d="M221.217 173.705C221.781 174.085 222.461 174.306 223.192 174.306C225.146 174.306 226.731 172.721 226.731 170.767C226.731 170.173 226.585 169.614 226.326 169.122L226.076 169.235C224.014 170.166 222.313 171.735 221.217 173.705Z" fill="#D34ACE"/>
<path d="M56.0529 271.477H21.6101V305.92H56.0529V271.477Z" fill="#D8ACF4"/>
<path d="M21.6108 271.477H2.63773V305.92H21.6108V271.477Z" fill="#B46AE2"/>
<path d="M21.6108 277.367H2.63773V278.375H21.6108V277.367Z" fill="#C596E2"/>
<path d="M56.0529 277.367H21.6101V278.375H56.0529V277.367Z" fill="#B46AE2"/>
<path d="M45.1689 283.306H32.4949C32.2544 283.306 32.0591 283.111 32.0591 282.871V282.845C32.0591 282.605 32.2544 282.409 32.4949 282.409H45.1689C45.4094 282.409 45.6047 282.605 45.6047 282.845V282.871C45.6047 283.111 45.4094 283.306 45.1689 283.306Z" fill="#C596E2"/>
<path d="M346.707 270.408L329.109 261.87L321.71 277.12L339.308 285.659L346.707 270.408Z" fill="#49146A"/>
<path d="M328.238 264.043L308.832 266.49L310.952 283.306L330.358 280.859L328.238 264.043Z" fill="#49146A"/>
<path d="M352.965 271.477H318.523V305.92H352.965V271.477Z" fill="#D8ACF4"/>
<path d="M318.523 271.477H299.55V305.92H318.523V271.477Z" fill="#B46AE2"/>
<path d="M299.55 271.477L289.694 282.035H311.101L318.523 271.477H299.55Z" fill="#C596E2"/>
<path d="M352.966 271.477L360 282.171H325.607L318.523 271.427L352.966 271.477Z" fill="#B46AE2"/>
<path d="M325.83 264.462L324.445 271.437L328.187 264.165L325.83 264.462Z" fill="#8D46AE"/>
<path d="M167.917 66.3603H93.5079C90.9673 66.3603 88.9077 64.3007 88.9077 61.76V4.60025C88.9077 2.05962 90.9673 0 93.5079 0H167.917C170.458 0 172.517 2.05962 172.517 4.60025V61.76C172.517 64.3007 170.457 66.3603 167.917 66.3603Z" fill="#9747FF"/>
<path d="M167.917 85.1497H93.5079C90.9673 85.1497 88.9077 83.0901 88.9077 80.5494V54.7605H172.517V80.5494C172.517 83.0901 170.457 85.1497 167.917 85.1497Z" fill="#6A2C91"/>
<path d="M144.693 66.3603H102.91C102.223 66.3603 101.666 65.8034 101.666 65.1162C101.666 64.4289 102.223 63.8721 102.91 63.8721H144.693C145.38 63.8721 145.937 64.4289 145.937 65.1162C145.937 65.8027 145.38 66.3603 144.693 66.3603Z" fill="white"/>
<path d="M124.984 73.1448H102.91C102.223 73.1448 101.666 72.5879 101.666 71.9007C101.666 71.2134 102.223 70.6566 102.91 70.6566H124.984C125.672 70.6566 126.229 71.2134 126.229 71.9007C126.229 72.5879 125.672 73.1448 124.984 73.1448Z" fill="white"/>
<path d="M156.974 28.3127H134.9C134.213 28.3127 133.656 27.7559 133.656 27.0686C133.656 26.3814 134.213 25.8247 134.9 25.8247H156.974C157.661 25.8247 158.218 26.3814 158.218 27.0686C158.218 27.7559 157.661 28.3127 156.974 28.3127Z" fill="white"/>
<path d="M146.04 35.0979H134.9C134.213 35.0979 133.656 34.5411 133.656 33.8538C133.656 33.1666 134.213 32.6097 134.9 32.6097H146.04C146.727 32.6097 147.284 33.1666 147.284 33.8538C147.284 34.5411 146.726 35.0979 146.04 35.0979Z" fill="white"/>
<path d="M113.77 41.548C113.77 40.6953 114.461 40.0036 115.314 40.0036C109.305 40.0036 104.416 35.1148 104.416 29.1057C104.416 23.0967 109.305 18.2078 115.314 18.2078C121.323 18.2078 126.212 23.0967 126.212 29.1057C126.212 28.253 126.903 27.5613 127.756 27.5613C128.609 27.5613 129.3 28.253 129.3 29.1057C129.3 21.3935 123.026 15.1199 115.315 15.1199C107.602 15.1199 101.329 21.3942 101.329 29.1057C101.329 36.8173 107.603 43.0916 115.315 43.0916C114.46 43.0923 113.77 42.4007 113.77 41.548Z" fill="white"/>
<path d="M127.755 27.562C126.903 27.562 126.211 28.2538 126.211 29.1065C126.211 35.1155 121.322 40.0043 115.313 40.0043C114.46 40.0043 113.769 40.6953 113.769 41.5487C113.769 42.4014 114.46 43.093 115.313 43.093C123.025 43.093 129.299 36.8187 129.299 29.1072C129.3 28.2537 128.608 27.562 127.755 27.562Z" fill="#6A2C91"/>
<path d="M190.921 54.4537V82.4058C190.921 83.921 192.149 85.1497 193.664 85.1497H237.949C239.464 85.1497 240.692 83.921 240.692 82.4058V54.4537H190.921Z" fill="#C59AE0"/>
<path d="M195.798 43.0734H235.816C237.466 43.0734 238.804 45.259 238.804 47.9541V71.9598C238.804 74.6557 237.466 76.8405 235.816 76.8405H195.798C194.148 76.8405 192.81 74.6549 192.81 71.9598V47.9541C192.81 45.259 194.148 43.0734 195.798 43.0734Z" fill="#9747FF"/>
<path d="M237.95 85.1497H193.665C192.149 85.1497 190.921 83.921 190.921 82.4058V54.4537L215.808 72.6667L240.695 54.4537V82.4058C240.693 83.921 239.465 85.1497 237.95 85.1497Z" fill="#6A2C91"/>
<path d="M226.747 53.4889H204.866C204.179 53.4889 203.622 52.932 203.622 52.2448C203.622 51.5575 204.179 51.0007 204.866 51.0007H226.747C227.435 51.0007 227.991 51.5575 227.991 52.2448C227.991 52.932 227.435 53.4889 226.747 53.4889Z" fill="white"/>
<path d="M221.324 59.0298H210.291C209.604 59.0298 209.047 58.4732 209.047 57.7859C209.047 57.0986 209.604 56.5418 210.291 56.5418H221.324C222.011 56.5418 222.568 57.0986 222.568 57.7859C222.567 58.4724 222.01 59.0298 221.324 59.0298Z" fill="white"/>
<path d="M57.2992 84.4829C57.2992 76.6533 50.3937 70.3097 40.0388 70.3097C31.433 70.3097 28.4755 75.0587 28.4755 75.0587C28.4755 75.0587 20.3413 76.8166 20.3413 86.9244C20.3413 96.321 20.3413 112.486 20.3413 112.486H33.7069H34.3884H44.2593H54.9896V91.435C55.8372 90.3943 57.2992 88.0788 57.2992 84.4829ZM41.226 107.375C40.5023 107.375 39.7123 107.241 38.888 107.009V112.486H27.0616V98.3952C26.9807 98.1693 26.9013 97.9273 26.824 97.673C21.581 97.1723 21.7982 88.5073 24.9138 88.5073C24.9561 88.5073 24.9976 88.5109 25.0385 88.5168V88.5161C38.1352 92.7031 46.9428 85.8428 49.8245 81.0764C49.8245 84.4026 53.5058 87.646 54.8154 87.9419C54.6216 99.828 46.1178 107.375 41.226 107.375Z" fill="#311643"/>
<path d="M38.888 108.297V107.009C39.7123 107.241 40.5023 107.375 41.226 107.375C46.1178 107.375 54.6215 99.8287 54.8147 87.9411C53.505 87.6452 49.8238 84.4019 49.8238 81.0756C46.9421 85.8428 38.1344 92.7023 25.0377 88.5153V88.516C24.9969 88.5102 24.9561 88.5066 24.9131 88.5066C21.7974 88.5066 21.5802 97.1714 26.8233 97.6721C26.9005 97.9264 26.98 98.1678 27.0609 98.3945V107.873L17.7984 112.24V123.672H48.5782V111.209L38.888 108.297Z" fill="#FCBEB7"/>
<path d="M48.579 123.672V111.209L38.8887 108.297V107.009C36.1484 106.236 33.0335 104.362 30.7458 102.615L48.579 123.672Z" fill="#F9AFAB"/>
<path d="M32.5722 97.9775C34.3541 97.9775 35.7986 96.533 35.7986 94.7511C35.7986 92.9692 34.3541 91.5247 32.5722 91.5247C30.7903 91.5247 29.3457 92.9692 29.3457 94.7511C29.3457 96.533 30.7903 97.9775 32.5722 97.9775Z" fill="#F49795"/>
<path d="M54.4 92.072C53.9911 94.2388 53.3053 96.2145 52.4395 97.9724C50.7334 97.8879 49.3763 96.4777 49.3763 94.7504C49.3763 92.9685 50.8208 91.524 52.602 91.524C53.2674 91.5247 53.8862 91.7266 54.4 92.072Z" fill="#F49795"/>
<path d="M48.9427 84.9384C46.5872 84.9384 44.642 86.7291 44.3971 89.0212C43.1166 88.4185 41.9862 88.745 41.3893 89.019C41.143 86.7284 39.1992 84.9384 36.8444 84.9384C34.3235 84.9384 32.2726 86.9892 32.2726 89.5101C32.2726 92.0311 34.3235 94.0821 36.8444 94.0821C39.3093 94.0821 41.323 92.1214 41.4119 89.6778C41.7916 89.4591 42.9978 88.9024 44.3745 89.6829C44.4656 92.1237 46.4793 94.0821 48.9419 94.0821C51.4629 94.0821 53.5138 92.0311 53.5138 89.5101C53.5152 86.9892 51.4636 84.9384 48.9427 84.9384ZM36.8444 93.4844C34.6536 93.4844 32.871 91.7017 32.871 89.5109C32.871 87.3193 34.6536 85.5367 36.8444 85.5367C39.036 85.5367 40.8186 87.3193 40.8186 89.5109C40.8186 91.7017 39.036 93.4844 36.8444 93.4844ZM48.9427 93.4844C46.7519 93.4844 44.9692 91.7017 44.9692 89.5109C44.9692 87.3193 46.7519 85.5367 48.9427 85.5367C51.1342 85.5367 52.9169 87.3193 52.9169 89.5109C52.9169 91.7017 51.1342 93.4844 48.9427 93.4844Z" fill="white"/>
<path d="M48.9456 90.7727C48.5855 90.7727 48.2933 90.4804 48.2933 90.1204V88.901C48.2933 88.541 48.5855 88.2487 48.9456 88.2487C49.3056 88.2487 49.5978 88.541 49.5978 88.901V90.1204C49.5986 90.4804 49.3063 90.7727 48.9456 90.7727Z" fill="#311643"/>
<path d="M37.0434 90.7726C36.6834 90.7726 36.3911 90.4803 36.3911 90.1203V88.9009C36.3911 88.5409 36.6834 88.2486 37.0434 88.2486C37.4034 88.2486 37.6957 88.5409 37.6957 88.9009V90.1203C37.6957 90.4803 37.4034 90.7726 37.0434 90.7726Z" fill="#311643"/>
<path d="M41.7012 100.183C40.5366 100.183 39.7436 99.7455 39.2633 99.3468C38.6577 98.844 38.4063 98.2951 38.3953 98.2718C38.3275 98.1209 38.3946 97.9446 38.5455 97.8761C38.6956 97.8083 38.8727 97.8754 38.9405 98.0248C38.9747 98.0984 39.8019 99.8329 42.2048 99.5552C42.3695 99.5362 42.5175 99.6536 42.5364 99.8184C42.5554 99.9831 42.438 100.131 42.2733 100.15C42.0729 100.173 41.8827 100.183 41.7012 100.183Z" fill="#311643"/>
<path d="M61.2042 289.977L62.4278 295.063L75.7738 299.254L73.8541 289.977H61.2042Z" fill="#FCBEB7"/>
<path d="M16.241 289.977L16.6046 296.26L15.7738 296.566L15.2257 299.256L28.5579 295.063L28.8909 289.977H16.241Z" fill="#FCBEB7"/>
<path d="M86.066 301.229L75.217 296.566L75.7731 299.254L62.4278 295.064V298.888C62.4278 300.232 63.1311 301.451 64.2367 302.137L65.3846 305.418C65.4837 305.701 65.7512 305.891 66.0522 305.891C66.4428 305.891 66.7591 305.575 66.7591 305.185V303.051L75.8802 305.891H85.1069C86.4487 305.891 87.536 304.804 87.536 303.462C87.536 302.491 86.9581 301.613 86.066 301.229Z" fill="#8D46AE"/>
<path d="M28.5695 298.85L28.5586 295.026L15.2257 299.257L15.7738 296.567L4.93859 301.263C4.04798 301.649 3.47222 302.528 3.47514 303.499C3.47878 304.841 4.56981 305.925 5.91155 305.921L15.1383 305.894L24.5698 302.925L24.5764 305.16C24.5778 305.55 24.8948 305.866 25.2855 305.865C25.5858 305.864 25.8532 305.673 25.9516 305.389L27.1964 301.796C28.0506 301.082 28.5732 300.012 28.5695 298.85Z" fill="#8D46AE"/>
<path d="M18.2591 162.057L13.3367 182.901C11.9155 188.921 11.3551 195.112 11.6735 201.288L16.2417 289.977H28.8917L34.2929 197.934L61.2049 289.977H73.8548L51.5817 162.056H18.2591V162.057Z" fill="#6A2C91"/>
<path d="M34.9969 118.034C37.2431 118.034 39.0396 115.87 40.2509 113.68H27.4413C29.3953 115.865 32.0707 118.034 34.9969 118.034Z" fill="white"/>
<path d="M58.9638 118.201C56.9895 115.128 53.9868 112.856 50.4921 111.792L42.003 109.207C42.003 109.564 41.382 111.634 40.2509 113.68C39.0396 115.871 37.2431 118.034 34.9969 118.034C32.0707 118.034 29.3953 115.865 27.4413 113.68C25.459 111.463 24.2207 109.23 24.2207 109.23L15.4014 113.315C11.7916 114.988 9.13365 118.206 8.1738 122.067L1.66699 148.233L13.6319 148.236L16.5682 138.075L18.2591 162.057H51.5817L54.6092 136.532L62.5466 143.671L69.1314 134.026L58.9638 118.201Z" fill="#FE9ECC"/>
<path d="M106.99 108.297L106.483 108.212L106.403 107.902C106.254 107.317 105.747 106.895 105.145 106.854L98.0309 106.373L93.0823 104.361L95.8452 100.913C96.3029 100.342 96.2388 99.5131 95.6987 99.0197L89.8705 103.511C89.2983 103.951 88.8239 104.505 88.477 105.138L86.875 108.057L86.8678 108.047L62.5467 143.672L65.8883 146.725C68.6504 149.249 73.0605 148.429 74.7309 145.08L90.5315 113.406L96.2898 113.954C97.5849 114.077 98.8917 113.947 100.137 113.57L103.185 112.649C103.703 112.492 103.973 111.924 103.767 111.424L105.938 111.006C106.343 110.928 106.65 110.595 106.694 110.184L106.731 109.832H106.864C107.29 109.832 107.637 109.487 107.637 109.06C107.636 108.681 107.363 108.359 106.99 108.297Z" fill="#FCBEB7"/>
<path d="M69.1314 134.027L59.885 141.277L62.5466 143.672L69.1314 134.027Z" fill="#E05BE2"/>
<path d="M35.3256 121.15C33.473 121.15 31.5883 120.586 29.7225 119.474C28.2416 118.592 26.7694 117.364 25.3467 115.823C22.9322 113.209 21.4651 110.539 21.4505 110.512L21.941 110.285C21.9556 110.311 23.3819 112.898 25.7534 115.462C27.1396 116.962 28.5703 118.155 30.0053 119.009C31.7836 120.068 33.5735 120.605 35.3249 120.605C36.98 120.605 38.4704 120.052 39.7553 118.961C40.7946 118.079 41.7056 116.844 42.4628 115.292C43.7616 112.628 44.161 109.891 44.1653 109.864L44.6923 110.025C44.6762 110.139 44.2878 112.79 42.9519 115.53C42.1618 117.151 41.2049 118.445 40.1081 119.376C38.7226 120.553 37.1134 121.15 35.3256 121.15Z" fill="white"/>
<path d="M55.1827 232.831C58.5268 232.831 61.2377 230.12 61.2377 226.776C61.2377 223.432 58.5268 220.721 55.1827 220.721C51.8387 220.721 49.1278 223.432 49.1278 226.776C49.1278 230.12 51.8387 232.831 55.1827 232.831Z" fill="#49146A"/>
<path d="M23.4591 232.831C26.8032 232.831 29.5141 230.12 29.5141 226.776C29.5141 223.432 26.8032 220.721 23.4591 220.721C20.1151 220.721 17.4042 223.432 17.4042 226.776C17.4042 230.12 20.1151 232.831 23.4591 232.831Z" fill="#49146A"/>
<path d="M58.1439 117.044C57.5339 117.446 56.8029 117.68 56.0172 117.68C53.8818 117.68 52.1494 115.949 52.1494 113.813C52.1494 113.353 52.2296 112.912 52.3776 112.503C54.634 113.529 56.6134 115.086 58.1439 117.044Z" fill="#E05BE2"/>
<path d="M15.4538 116.008C15.4538 118.143 13.7229 119.875 11.5861 119.875C10.7282 119.875 9.93603 119.596 9.29468 119.123C10.5001 116.83 12.3666 114.928 14.6755 113.68C15.1645 114.328 15.4538 115.134 15.4538 116.008Z" fill="#E05BE2"/>
<path d="M27.6242 169.332L55.3985 168.284C55.8984 168.265 56.2876 167.844 56.2694 167.345L54.7833 128.004C54.7644 127.504 54.3439 127.115 53.8446 127.133L26.0704 128.182C25.5705 128.201 25.1813 128.621 25.1995 129.12L26.6855 168.462C26.7038 168.961 27.1243 169.351 27.6242 169.332Z" fill="#49146A"/>
<path d="M27.5368 167.211L55.1703 170.195C55.6674 170.248 56.1141 169.889 56.1681 169.392L60.3952 130.251C60.4491 129.754 60.0891 129.307 59.592 129.253L31.9585 126.268C31.4614 126.214 31.0147 126.574 30.9607 127.072L26.7336 166.213C26.6804 166.711 27.0397 167.157 27.5368 167.211Z" fill="#49146A"/>
<path d="M60.4119 151.568C60.3901 151.042 60.1561 150.547 59.7633 150.195L59.2444 149.731L59.2203 149.485C59.1285 148.558 58.3713 147.839 57.4413 147.793L54.083 147.628L55.8525 144.896C55.9713 144.713 56.0078 144.489 55.9538 144.277C55.8219 143.764 55.2287 143.528 54.7804 143.811L45.2163 149.845L13.6326 148.236L1.66699 148.233L0.2254 153.333C-0.900611 157.316 2.34988 161.178 6.4662 160.748L45.2163 156.712L56.2351 158.406L56.7256 158.273C57.5703 158.045 58.1599 157.282 58.1679 156.408L58.1745 155.727L58.1935 155.718C58.9157 155.395 59.3712 154.668 59.3472 153.877L59.3348 153.477L59.74 153.126C60.1889 152.736 60.4367 152.162 60.4119 151.568Z" fill="#FCBEB7"/>
<path d="M7.44718 157.363C7.44718 158.804 6.68703 160.067 5.54572 160.774C2.53865 160.624 0.183134 158.188 0.0104065 155.285C0.712979 154.128 1.98548 153.355 3.43873 153.355C5.65212 153.355 7.44718 155.149 7.44718 157.363Z" fill="#F9AFAB"/>
<path d="M73.97 146.232C72.0357 148.502 68.552 148.902 66.1433 146.943C66.3598 144.934 68.0615 143.369 70.1277 143.369C71.9439 143.369 73.4773 144.577 73.97 146.232Z" fill="#F9AFAB"/>
<path d="M29.0513 169.278C29.0513 169.278 53.7244 174.369 53.72 174.344C53.7156 174.32 52.9562 169.956 52.9562 169.956L42.1101 168.785L29.0513 169.278Z" fill="#49146A"/>
<path d="M28.5112 128.089L28.5929 148.998L30.8609 128.001L28.5112 128.089Z" fill="#8D46AE"/>
</svg>
