<svg width="331" height="272" viewBox="0 0 331 272" fill="none" xmlns="http://www.w3.org/2000/svg">
<circle opacity="0.16" cx="199" cy="132" r="132" fill="#B4D335"/>
<path d="M189.09 134.953L172.14 271.997H168.775L185.725 134.953H189.09Z" fill="#ECCDFF"/>
<path d="M116.265 186.933L106.005 271.996H102.64L112.9 186.933H116.265Z" fill="#ECCDFF"/>
<path d="M70.9238 186.932L69.7688 196.499L60.6638 271.996H57.2979L66.4498 196.125L67.5579 186.932H70.9238Z" fill="#ECCDFF"/>
<path d="M116.265 271.996H112.9L111.481 260.231L109.799 246.282L104.264 200.4L102.64 186.932H106.006L107.676 200.785L111.481 232.331L113.163 246.28L116.265 271.996Z" fill="#ECCDFF"/>
<path d="M161.607 271.996H158.241L150.278 205.972H150.277L147.981 186.932H151.347L153.688 206.339L161.607 271.996Z" fill="#ECCDFF"/>
<path d="M71.0867 130.07H67.7217V181.525H71.0867V130.07Z" fill="#ECCDFF"/>
<path d="M116.815 130.07H113.45V181.525H116.815V130.07Z" fill="#ECCDFF"/>
<path d="M152.759 181.524H106.524C108.017 181.524 109.228 182.735 109.228 184.228C109.228 185.721 108.017 186.932 106.524 186.932H152.759C154.252 186.932 155.463 185.721 155.463 184.228C155.463 182.735 154.253 181.524 152.759 181.524Z" fill="#ECCDFF"/>
<path d="M109.228 184.228C109.228 182.735 108.017 181.524 106.524 181.524H71.1589H66.604C65.11 181.524 63.8999 182.735 63.8999 184.228C63.8999 185.721 65.111 186.932 66.604 186.932H71.1589H106.524C108.018 186.933 109.228 185.722 109.228 184.228Z" fill="#9948CA"/>
<path d="M118.221 130.07H66.3169C63.4939 130.07 61.2048 127.781 61.2048 124.958V96.46C61.2048 93.637 63.4939 91.348 66.3169 91.348H118.221C121.044 91.348 123.333 93.637 123.333 96.46V124.958C123.333 127.781 121.044 130.07 118.221 130.07Z" fill="#ECCDFF"/>
<path d="M70.9237 186.932L69.7698 196.499C68.5548 196.362 67.4427 196.237 66.4497 196.125L67.5587 186.932H70.9237Z" fill="#CE7AF5"/>
<path d="M106.006 186.932L107.677 200.784C106.534 200.655 105.396 200.527 104.265 200.399L102.641 186.931H106.006V186.932Z" fill="#CE7AF5"/>
<path d="M153.688 206.339C152.602 206.223 151.464 206.1 150.279 205.972H150.278L147.982 186.932H151.348L153.688 206.339Z" fill="#CE7AF5"/>
<path d="M67.7217 130.07H71.0878V137.176L67.7217 136.804V130.07Z" fill="#CE7AF5"/>
<path d="M116.814 130.07V142.238L113.45 141.866V130.07H116.814Z" fill="#CE7AF5"/>
<path d="M123.396 39.772C119.442 46.313 107.357 55.725 89.3871 49.98V49.981C89.3311 49.973 89.2751 49.968 89.2161 49.968C84.9411 49.968 84.6431 61.857 91.8371 62.544C91.9431 62.893 92.0521 63.225 92.1631 63.535V82.869H108.39V75.354C109.521 75.673 110.605 75.856 111.598 75.856C118.31 75.856 129.978 65.502 130.243 49.191C128.447 48.786 123.396 44.335 123.396 39.772Z" fill="#FCBEB7"/>
<path d="M133.652 44.447C133.652 33.704 124.177 25 109.969 25C98.1611 25 94.103 31.516 94.103 31.516C94.103 31.516 82.9421 33.928 82.9421 47.797C82.9421 60.689 82.9421 82.87 82.9421 82.87H101.281H102.216H115.76H130.483V53.986C131.647 52.558 133.652 49.381 133.652 44.447ZM111.599 75.856C110.606 75.856 109.522 75.673 108.391 75.354V82.869H92.1641V63.535C92.0531 63.225 91.9441 62.893 91.8381 62.544C84.6441 61.857 84.942 49.968 89.217 49.968C89.275 49.968 89.3321 49.973 89.3881 49.981V49.98C107.358 55.725 119.443 46.312 123.397 39.772C123.397 44.336 128.448 48.786 130.245 49.192C129.978 65.502 118.31 75.856 111.599 75.856Z" fill="#311643"/>
<path d="M79.4541 81.444L92.1641 75.556L99.1381 75.74L108.391 76.176L121.687 80.214V97.179H79.4541V81.444Z" fill="#FCBEB7"/>
<path d="M121.687 98.218V80.214L108.39 76.176V75.354C104.63 74.293 100.356 71.723 97.217 69.325L121.687 98.218Z" fill="#F9AFAB"/>
<path d="M99.7241 62.962C102.169 62.962 104.151 60.98 104.151 58.535C104.151 56.0901 102.169 54.108 99.7241 54.108C97.2792 54.108 95.2971 56.0901 95.2971 58.535C95.2971 60.98 97.2792 62.962 99.7241 62.962Z" fill="#F49795"/>
<path d="M129.674 54.86C129.113 57.833 128.172 60.544 126.984 62.956C124.643 62.84 122.781 60.905 122.781 58.535C122.781 56.09 124.763 54.109 127.208 54.109C128.12 54.109 128.969 54.385 129.674 54.86Z" fill="#F49795"/>
<path d="M122.186 45.072C118.954 45.072 116.285 47.529 115.949 50.674C114.192 49.847 112.641 50.295 111.822 50.671C111.484 47.528 108.817 45.072 105.586 45.072C102.127 45.072 99.313 47.886 99.313 51.345C99.313 54.804 102.127 57.618 105.586 57.618C108.968 57.618 111.732 54.928 111.853 51.575C112.374 51.275 114.029 50.511 115.919 51.582C116.044 54.931 118.807 57.618 122.186 57.618C125.645 57.618 128.459 54.804 128.459 51.345C128.46 47.886 125.646 45.072 122.186 45.072ZM105.586 56.797C102.58 56.797 100.134 54.351 100.134 51.345C100.134 48.338 102.58 45.892 105.586 45.892C108.593 45.892 111.039 48.338 111.039 51.345C111.039 54.352 108.593 56.797 105.586 56.797ZM122.186 56.797C119.18 56.797 116.733 54.351 116.733 51.345C116.733 48.338 119.179 45.892 122.186 45.892C125.193 45.892 127.639 48.338 127.639 51.345C127.639 54.352 125.193 56.797 122.186 56.797Z" fill="white"/>
<path d="M122.191 55.357C121.697 55.357 121.296 54.956 121.296 54.462V52.79C121.296 52.296 121.697 51.895 122.191 51.895C122.685 51.895 123.086 52.296 123.086 52.79V54.462C123.086 54.956 122.685 55.357 122.191 55.357Z" fill="#311643"/>
<path d="M105.859 55.357C105.364 55.357 104.964 54.956 104.964 54.462V52.79C104.964 52.296 105.365 51.895 105.859 51.895C106.353 51.895 106.754 52.296 106.754 52.79V54.462C106.754 54.956 106.353 55.357 105.859 55.357Z" fill="#311643"/>
<path d="M112.25 65.989C110.652 65.989 109.564 65.388 108.905 64.841C108.074 64.151 107.729 63.398 107.714 63.366C107.621 63.159 107.713 62.916 107.92 62.823C108.126 62.73 108.369 62.822 108.462 63.027C108.509 63.129 109.644 65.508 112.941 65.127C113.167 65.101 113.37 65.262 113.396 65.487C113.422 65.712 113.261 65.916 113.036 65.942C112.76 65.975 112.499 65.989 112.25 65.989Z" fill="#311643"/>
<path d="M148.981 265.601L134.095 259.202L134.858 262.891L116.547 257.141V262.388C116.547 264.233 117.512 265.906 119.029 266.846L120.604 271.348C120.74 271.737 121.107 271.998 121.52 271.998C122.056 271.998 122.49 271.564 122.49 271.028V268.098L135.005 271.997H147.665C149.506 271.997 150.998 270.505 150.998 268.664C150.998 267.331 150.205 266.127 148.981 265.601Z" fill="#49146A"/>
<path d="M181.442 265.601L166.556 259.202L167.319 262.891L149.008 257.141V262.388C149.008 264.233 149.973 265.906 151.49 266.846L153.065 271.348C153.201 271.737 153.568 271.998 153.981 271.998C154.517 271.998 154.951 271.564 154.951 271.028V268.098L167.466 271.997H180.126C181.967 271.997 183.459 270.505 183.459 268.664C183.458 267.331 182.665 266.127 181.442 265.601Z" fill="#49146A"/>
<path d="M116.547 250.162L116.556 257.14L134.859 262.891L134.095 259.202L132.575 258.426L133.904 250.162H116.547Z" fill="#FCBEB7"/>
<path d="M149.008 250.162L149.016 257.14L167.319 262.891L166.556 259.202L165.035 258.428L166.365 250.162H149.008Z" fill="#FCBEB7"/>
<path d="M103.418 151.195V151.85C103.405 168.328 116.76 181.693 133.239 181.693H147.092L149.009 250.161H166.366L179.164 168.525C180.591 159.422 173.553 151.194 164.339 151.194H103.418V151.195Z" fill="#6A2C91"/>
<path d="M145.9 173.645L147.091 181.694H144.563L145.9 173.645Z" fill="#5E2373"/>
<path d="M76.1869 163.632C77.0559 173.846 85.5999 181.694 95.8509 181.694H114.631L116.548 250.162H133.905L146.568 169.389C148.066 159.832 140.678 151.196 131.005 151.196H129.616L125.632 139.287H79.9098L76.4339 158.435C76.1219 160.148 76.0389 161.896 76.1869 163.632Z" fill="#6A2C91"/>
<path d="M102.875 89.524C105.957 89.524 108.422 86.556 110.084 83.55H92.5078C95.1888 86.548 98.8599 89.524 102.875 89.524Z" fill="white"/>
<path d="M135.907 89.981L134.691 88.088C133.112 85.63 130.89 83.674 128.288 82.417C127.563 82.068 126.81 81.773 126.031 81.536L112.489 77.412C112.489 77.902 111.637 80.742 110.085 83.549C108.423 86.555 105.958 89.523 102.876 89.523C98.861 89.523 95.1899 86.547 92.5089 83.549C89.7889 80.507 88.09 77.442 88.09 77.442L75.989 83.049C71.036 85.344 67.3899 89.759 66.0719 95.057L60.678 112.294C59.755 115.244 59.2849 118.317 59.2849 121.408V122.836C59.2849 126.541 62.289 129.544 65.994 129.544H78.895L79.9099 139.286H125.631L137.155 91.923L135.907 89.981Z" fill="#FE9ECC"/>
<path d="M103.326 93.8C100.784 93.8 98.1979 93.026 95.6379 91.501C93.6059 90.29 91.5859 88.605 89.6339 86.492C86.3209 82.905 84.302 79.244 84.282 79.208L84.9619 78.893C84.9819 78.929 86.939 82.478 90.193 85.998C92.095 88.056 94.058 89.693 96.027 90.865C98.467 92.318 100.923 93.054 103.326 93.054C105.594 93.054 107.637 92.297 109.398 90.805C110.823 89.597 112.073 87.906 113.112 85.779C114.898 82.124 115.444 78.352 115.449 78.315L116.191 78.541C116.169 78.696 115.623 82.331 113.79 86.091C112.706 88.315 111.393 90.09 109.888 91.368C107.987 92.981 105.779 93.8 103.326 93.8Z" fill="white"/>
<path d="M179.176 168.435C177.66 170.068 175.494 171.09 173.089 171.09C168.501 171.09 164.78 167.37 164.78 162.781C164.78 158.192 168.5 154.473 173.089 154.473C173.305 154.473 173.52 154.481 173.732 154.497C177.725 157.711 180.01 162.906 179.176 168.435Z" fill="#5E2373"/>
<path d="M146.759 166.729C145.354 169.326 142.607 171.089 139.448 171.089C134.859 171.089 131.14 167.369 131.14 162.78C131.14 158.191 134.86 154.472 139.448 154.472C139.895 154.472 140.333 154.508 140.76 154.576C144.388 157.446 146.702 161.863 146.759 166.729Z" fill="#5E2373"/>
<path d="M65.318 129.545H115.485V123.213L66.007 117.52C62.426 117.108 59.2849 119.908 59.2849 123.513C59.2849 126.844 61.986 129.545 65.318 129.545Z" fill="#FCBEB7"/>
<path d="M178.245 91.923H126.986C124.931 91.923 123.124 93.284 122.557 95.26L113.695 126.132H94.1241C93.1991 126.132 92.4101 126.852 92.3781 127.776C92.3431 128.747 93.1202 129.545 94.0832 129.545H118.639H170.669L180.58 95.021C181.024 93.469 179.859 91.923 178.245 91.923Z" fill="#5E2373"/>
<path d="M150.622 112.06C150.749 110.619 150.051 109.38 149.063 109.293C148.076 109.206 147.172 110.304 147.045 111.746C146.919 113.187 147.616 114.426 148.604 114.513C149.592 114.6 150.495 113.502 150.622 112.06Z" fill="#49146A"/>
<path d="M79.9091 139.286L78.0801 149.362L126.681 142.427L125.63 139.286H79.9091Z" fill="#5E2373"/>
<path d="M77.278 85.927C77.278 88.967 74.8139 91.431 71.7729 91.431C70.3839 91.431 69.115 90.916 68.146 90.067C69.983 87.034 72.6969 84.575 75.9869 83.05L76.356 82.879C76.939 83.751 77.278 84.8 77.278 85.927Z" fill="#FF78BA"/>
<path d="M135.907 89.981C135.054 90.525 134.041 90.839 132.955 90.839C129.915 90.839 127.45 88.375 127.45 85.335C127.45 84.264 127.757 83.263 128.287 82.417C130.89 83.673 133.112 85.629 134.69 88.088L135.907 89.981Z" fill="#FF78BA"/>
<path d="M118.304 110.071C118.091 110.812 108.781 120.838 108.781 120.838L83.9741 119.586L114.562 123.106L118.304 110.071Z" fill="#FF78BA"/>
<path d="M20.3149 134.953L15.781 171.619L3.36499 271.997H0L12.38 171.905L16.95 134.953H20.3149Z" fill="#ECCDFF"/>
<path d="M64.8541 271.997H61.488L48.7291 168.84L44.5381 134.953H47.9031L52.0601 168.559L64.8541 271.997Z" fill="#ECCDFF"/>
<path d="M16.9498 134.953H20.3148L15.7809 171.619L12.3799 171.905L16.9498 134.953Z" fill="#CE7AF5"/>
<path d="M47.9031 134.953L52.0601 168.559L48.7291 168.84L44.5381 134.953H47.9031Z" fill="#CE7AF5"/>
<path d="M233.629 271.997H230.263L215.762 154.754L213.313 134.953H216.679L219.093 154.473L233.629 271.997Z" fill="#ECCDFF"/>
<path d="M219.093 154.473L215.762 154.754L213.313 134.953H216.679L219.093 154.473Z" fill="#CE7AF5"/>
<path d="M225.597 129.545H53.9609V134.953H225.597C227.091 134.953 228.301 133.742 228.301 132.249C228.301 130.755 227.09 129.545 225.597 129.545Z" fill="#ECCDFF"/>
<path d="M19.0239 129.545H8.88196C7.38896 129.545 6.17798 130.756 6.17798 132.249C6.17798 133.742 7.38896 134.953 8.88196 134.953H19.0239H53.9609V129.545H19.0239Z" fill="#9948CA"/>
<path d="M221.737 123.5V122.121C221.737 121.695 221.391 121.349 220.965 121.349H188.976C187.362 121.349 186.054 122.657 186.054 124.271V126.622C186.054 128.236 187.362 129.544 188.976 129.544H220.965C221.391 129.544 221.737 129.198 221.737 128.772V127.393C221.737 126.967 221.391 126.621 220.965 126.621H190.151C189.502 126.621 188.976 126.095 188.976 125.446C188.976 124.797 189.502 124.271 190.151 124.271H220.965C221.391 124.271 221.737 123.926 221.737 123.5Z" fill="#6A2C91"/>
<path d="M220.355 124.271V126.622H190.151C189.502 126.622 188.976 126.096 188.976 125.447C188.976 124.798 189.502 124.272 190.151 124.272H220.355V124.271Z" fill="#ECCDFF"/>
<path d="M219.451 115.304V113.925C219.451 113.499 219.105 113.153 218.679 113.153H191.261C189.647 113.153 188.339 114.461 188.339 116.075V118.426C188.339 120.04 189.647 121.348 191.261 121.348H218.679C219.105 121.348 219.451 121.002 219.451 120.576V119.198C219.451 118.772 219.105 118.426 218.679 118.426H192.436C191.787 118.426 191.261 117.9 191.261 117.251C191.261 116.602 191.787 116.076 192.436 116.076H218.679C219.106 116.076 219.451 115.73 219.451 115.304Z" fill="#F9A0C0"/>
<path d="M218.435 116.076V118.427H192.437C191.788 118.427 191.262 117.901 191.262 117.252C191.262 116.603 191.788 116.077 192.437 116.077H218.435V116.076Z" fill="#FFD9E8"/>
<path d="M34.092 116.394H49.1871C49.9321 116.394 50.509 117.044 50.42 117.784L49.143 128.451C49.068 129.075 48.539 129.545 47.91 129.545H35.368C34.739 129.545 34.2101 129.075 34.1351 128.451L32.858 117.784C32.77 117.044 33.347 116.394 34.092 116.394Z" fill="#ECCDFF"/>
<path d="M46.8209 112.041V107.19L43.9189 112.704V103.749L41.6389 109.387L39.359 103.749V112.704L36.4569 107.19V112.041L32.229 105.242L34.0919 116.394H41.6389H49.187L51.0499 105.242L46.8209 112.041Z" fill="#B4D335"/>
<path d="M65.3999 127.517C67.6118 127.517 69.4049 125.724 69.4049 123.512C69.4049 121.3 67.6118 119.507 65.3999 119.507C63.188 119.507 61.395 121.3 61.395 123.512C61.395 125.724 63.188 127.517 65.3999 127.517Z" fill="#F9AFAB"/>
</svg>
