<svg width="80" height="80" viewBox="0 0 80 80" fill="none" xmlns="http://www.w3.org/2000/svg">
<rect width="80" height="80" rx="40" fill="#6A2C91"/>
<path d="M40.25 47.5V51" stroke="white" stroke-width="2" stroke-linecap="round" stroke-linejoin="round"/>
<path d="M31.9167 56.6666H48.5834V55C48.5834 53.1666 47.0834 51.6666 45.2501 51.6666H35.2501C33.4167 51.6666 31.9167 53.1666 31.9167 55V56.6666Z" stroke="white" stroke-width="2" stroke-miterlimit="10"/>
<path d="M30.2499 56.6667H50.2499M39.9999 46.6667C33.5499 46.6667 28.3333 41.45 28.3333 35V30C28.3333 26.3167 31.3166 23.3334 34.9999 23.3334H44.9999C48.6833 23.3334 51.6666 26.3167 51.6666 30V35C51.6666 41.45 46.4499 46.6667 39.9999 46.6667Z" stroke="white" stroke-width="2" stroke-linecap="round" stroke-linejoin="round"/>
<path d="M29.1166 39.4167C27.8666 39.0167 26.7666 38.2833 25.8999 37.4167C24.3999 35.75 23.3999 33.75 23.3999 31.4167C23.3999 29.0833 25.2332 27.25 27.5666 27.25H28.6499C28.3166 28.0167 28.1499 28.8667 28.1499 29.75V34.75C28.1499 36.4167 28.4999 37.9833 29.1166 39.4167ZM50.8832 39.4167C52.1332 39.0167 53.2332 38.2833 54.0999 37.4167C55.5999 35.75 56.5999 33.75 56.5999 31.4167C56.5999 29.0833 54.7666 27.25 52.4332 27.25H51.3499C51.6832 28.0167 51.8499 28.8667 51.8499 29.75V34.75C51.8499 36.4167 51.4999 37.9833 50.8832 39.4167Z" stroke="white" stroke-width="2" stroke-linecap="round" stroke-linejoin="round"/>
</svg>
