<svg width="408" height="421" viewBox="0 0 408 421" fill="none" xmlns="http://www.w3.org/2000/svg">
<circle opacity="0.24" cx="268" cy="329" r="92" fill="#C7C2BA"/>
<circle cx="119" cy="388" r="28" fill="#6A2C91"/>
<mask id="mask0_211_42" style="mask-type:alpha" maskUnits="userSpaceOnUse" x="0" y="0" width="408" height="408">
<rect y="214.96" width="16" height="2" rx="1" transform="rotate(-45 0 214.96)" fill="#D9D9D9"/>
<rect x="22.6274" y="192.333" width="16" height="2" rx="1" transform="rotate(-45 22.6274 192.333)" fill="#D9D9D9"/>
<rect x="45.2549" y="169.706" width="16" height="2" rx="1" transform="rotate(-45 45.2549 169.706)" fill="#D9D9D9"/>
<rect x="67.8822" y="147.078" width="16" height="2" rx="1" transform="rotate(-45 67.8822 147.078)" fill="#D9D9D9"/>
<rect x="90.5096" y="124.451" width="16" height="2" rx="1" transform="rotate(-45 90.5096 124.451)" fill="#D9D9D9"/>
<rect x="113.137" y="101.823" width="16" height="2" rx="1" transform="rotate(-45 113.137 101.823)" fill="#D9D9D9"/>
<rect x="135.765" y="79.1959" width="16" height="2" rx="1" transform="rotate(-45 135.765 79.1959)" fill="#D9D9D9"/>
<rect x="158.392" y="56.5685" width="16" height="2" rx="1" transform="rotate(-45 158.392 56.5685)" fill="#D9D9D9"/>
<rect x="181.019" y="33.9411" width="16" height="2" rx="1" transform="rotate(-45 181.019 33.9411)" fill="#D9D9D9"/>
<rect x="203.647" y="11.3137" width="16" height="2" rx="1" transform="rotate(-45 203.647 11.3137)" fill="#D9D9D9"/>
<rect x="12.7279" y="227.688" width="16" height="2" rx="1" transform="rotate(-45 12.7279 227.688)" fill="#D9D9D9"/>
<rect x="35.3553" y="205.061" width="16" height="2" rx="1" transform="rotate(-45 35.3553 205.061)" fill="#D9D9D9"/>
<rect x="57.9828" y="182.433" width="16" height="2" rx="1" transform="rotate(-45 57.9828 182.433)" fill="#D9D9D9"/>
<rect x="80.6101" y="159.806" width="16" height="2" rx="1" transform="rotate(-45 80.6101 159.806)" fill="#D9D9D9"/>
<rect x="103.238" y="137.179" width="16" height="2" rx="1" transform="rotate(-45 103.238 137.179)" fill="#D9D9D9"/>
<rect x="125.865" y="114.551" width="16" height="2" rx="1" transform="rotate(-45 125.865 114.551)" fill="#D9D9D9"/>
<rect x="148.492" y="91.9238" width="16" height="2" rx="1" transform="rotate(-45 148.492 91.9238)" fill="#D9D9D9"/>
<rect x="171.12" y="69.2964" width="16" height="2" rx="1" transform="rotate(-45 171.12 69.2964)" fill="#D9D9D9"/>
<rect x="193.747" y="46.669" width="16" height="2" rx="1" transform="rotate(-45 193.747 46.669)" fill="#D9D9D9"/>
<rect x="216.375" y="24.0416" width="16" height="2" rx="1" transform="rotate(-45 216.375 24.0416)" fill="#D9D9D9"/>
<rect x="25.4558" y="240.416" width="16" height="2" rx="1" transform="rotate(-45 25.4558 240.416)" fill="#D9D9D9"/>
<rect x="48.0833" y="217.789" width="16" height="2" rx="1" transform="rotate(-45 48.0833 217.789)" fill="#D9D9D9"/>
<rect x="70.7107" y="195.161" width="16" height="2" rx="1" transform="rotate(-45 70.7107 195.161)" fill="#D9D9D9"/>
<rect x="93.338" y="172.534" width="16" height="2" rx="1" transform="rotate(-45 93.338 172.534)" fill="#D9D9D9"/>
<rect x="115.965" y="149.907" width="16" height="2" rx="1" transform="rotate(-45 115.965 149.907)" fill="#D9D9D9"/>
<rect x="138.593" y="127.279" width="16" height="2" rx="1" transform="rotate(-45 138.593 127.279)" fill="#D9D9D9"/>
<rect x="161.22" y="104.652" width="16" height="2" rx="1" transform="rotate(-45 161.22 104.652)" fill="#D9D9D9"/>
<rect x="183.848" y="82.0244" width="16" height="2" rx="1" transform="rotate(-45 183.848 82.0244)" fill="#D9D9D9"/>
<rect x="206.475" y="59.3969" width="16" height="2" rx="1" transform="rotate(-45 206.475 59.3969)" fill="#D9D9D9"/>
<rect x="229.103" y="36.7695" width="16" height="2" rx="1" transform="rotate(-45 229.103 36.7695)" fill="#D9D9D9"/>
<rect x="38.1837" y="253.144" width="16" height="2" rx="1" transform="rotate(-45 38.1837 253.144)" fill="#D9D9D9"/>
<rect x="60.8112" y="230.517" width="16" height="2" rx="1" transform="rotate(-45 60.8112 230.517)" fill="#D9D9D9"/>
<rect x="83.4386" y="207.889" width="16" height="2" rx="1" transform="rotate(-45 83.4386 207.889)" fill="#D9D9D9"/>
<rect x="106.066" y="185.262" width="16" height="2" rx="1" transform="rotate(-45 106.066 185.262)" fill="#D9D9D9"/>
<rect x="128.693" y="162.635" width="16" height="2" rx="1" transform="rotate(-45 128.693 162.635)" fill="#D9D9D9"/>
<rect x="151.321" y="140.007" width="16" height="2" rx="1" transform="rotate(-45 151.321 140.007)" fill="#D9D9D9"/>
<rect x="173.948" y="117.38" width="16" height="2" rx="1" transform="rotate(-45 173.948 117.38)" fill="#D9D9D9"/>
<rect x="196.576" y="94.7523" width="16" height="2" rx="1" transform="rotate(-45 196.576 94.7523)" fill="#D9D9D9"/>
<rect x="219.203" y="72.1248" width="16" height="2" rx="1" transform="rotate(-45 219.203 72.1248)" fill="#D9D9D9"/>
<rect x="241.83" y="49.4974" width="16" height="2" rx="1" transform="rotate(-45 241.83 49.4974)" fill="#D9D9D9"/>
<rect x="50.9117" y="265.872" width="16" height="2" rx="1" transform="rotate(-45 50.9117 265.872)" fill="#D9D9D9"/>
<rect x="73.5392" y="243.245" width="16" height="2" rx="1" transform="rotate(-45 73.5392 243.245)" fill="#D9D9D9"/>
<rect x="96.1666" y="220.617" width="16" height="2" rx="1" transform="rotate(-45 96.1666 220.617)" fill="#D9D9D9"/>
<rect x="118.794" y="197.99" width="16" height="2" rx="1" transform="rotate(-45 118.794 197.99)" fill="#D9D9D9"/>
<rect x="141.421" y="175.363" width="16" height="2" rx="1" transform="rotate(-45 141.421 175.363)" fill="#D9D9D9"/>
<rect x="164.049" y="152.735" width="16" height="2" rx="1" transform="rotate(-45 164.049 152.735)" fill="#D9D9D9"/>
<rect x="186.676" y="130.108" width="16" height="2" rx="1" transform="rotate(-45 186.676 130.108)" fill="#D9D9D9"/>
<rect x="209.304" y="107.48" width="16" height="2" rx="1" transform="rotate(-45 209.304 107.48)" fill="#D9D9D9"/>
<rect x="231.931" y="84.8528" width="16" height="2" rx="1" transform="rotate(-45 231.931 84.8528)" fill="#D9D9D9"/>
<rect x="254.558" y="62.2255" width="16" height="2" rx="1" transform="rotate(-45 254.558 62.2255)" fill="#D9D9D9"/>
<rect x="63.6396" y="278.6" width="16" height="2" rx="1" transform="rotate(-45 63.6396 278.6)" fill="#D9D9D9"/>
<rect x="86.2671" y="255.973" width="16" height="2" rx="1" transform="rotate(-45 86.2671 255.973)" fill="#D9D9D9"/>
<rect x="108.895" y="233.345" width="16" height="2" rx="1" transform="rotate(-45 108.895 233.345)" fill="#D9D9D9"/>
<rect x="131.522" y="210.718" width="16" height="2" rx="1" transform="rotate(-45 131.522 210.718)" fill="#D9D9D9"/>
<rect x="154.149" y="188.09" width="16" height="2" rx="1" transform="rotate(-45 154.149 188.09)" fill="#D9D9D9"/>
<rect x="176.777" y="165.463" width="16" height="2" rx="1" transform="rotate(-45 176.777 165.463)" fill="#D9D9D9"/>
<rect x="199.404" y="142.836" width="16" height="2" rx="1" transform="rotate(-45 199.404 142.836)" fill="#D9D9D9"/>
<rect x="222.032" y="120.208" width="16" height="2" rx="1" transform="rotate(-45 222.032 120.208)" fill="#D9D9D9"/>
<rect x="244.659" y="97.5807" width="16" height="2" rx="1" transform="rotate(-45 244.659 97.5807)" fill="#D9D9D9"/>
<rect x="267.286" y="74.9534" width="16" height="2" rx="1" transform="rotate(-45 267.286 74.9534)" fill="#D9D9D9"/>
<rect x="76.3676" y="291.328" width="16" height="2" rx="1" transform="rotate(-45 76.3676 291.328)" fill="#D9D9D9"/>
<rect x="98.995" y="268.701" width="16" height="2" rx="1" transform="rotate(-45 98.995 268.701)" fill="#D9D9D9"/>
<rect x="121.622" y="246.073" width="16" height="2" rx="1" transform="rotate(-45 121.622 246.073)" fill="#D9D9D9"/>
<rect x="144.25" y="223.446" width="16" height="2" rx="1" transform="rotate(-45 144.25 223.446)" fill="#D9D9D9"/>
<rect x="166.877" y="200.818" width="16" height="2" rx="1" transform="rotate(-45 166.877 200.818)" fill="#D9D9D9"/>
<rect x="189.505" y="178.191" width="16" height="2" rx="1" transform="rotate(-45 189.505 178.191)" fill="#D9D9D9"/>
<rect x="212.132" y="155.563" width="16" height="2" rx="1" transform="rotate(-45 212.132 155.563)" fill="#D9D9D9"/>
<rect x="234.76" y="132.936" width="16" height="2" rx="1" transform="rotate(-45 234.76 132.936)" fill="#D9D9D9"/>
<rect x="257.387" y="110.309" width="16" height="2" rx="1" transform="rotate(-45 257.387 110.309)" fill="#D9D9D9"/>
<rect x="280.014" y="87.6813" width="16" height="2" rx="1" transform="rotate(-45 280.014 87.6813)" fill="#D9D9D9"/>
<rect x="89.0955" y="304.056" width="16" height="2" rx="1" transform="rotate(-45 89.0955 304.056)" fill="#D9D9D9"/>
<rect x="111.723" y="281.428" width="16" height="2" rx="1" transform="rotate(-45 111.723 281.428)" fill="#D9D9D9"/>
<rect x="134.35" y="258.801" width="16" height="2" rx="1" transform="rotate(-45 134.35 258.801)" fill="#D9D9D9"/>
<rect x="156.978" y="236.174" width="16" height="2" rx="1" transform="rotate(-45 156.978 236.174)" fill="#D9D9D9"/>
<rect x="179.605" y="213.546" width="16" height="2" rx="1" transform="rotate(-45 179.605 213.546)" fill="#D9D9D9"/>
<rect x="202.233" y="190.919" width="16" height="2" rx="1" transform="rotate(-45 202.233 190.919)" fill="#D9D9D9"/>
<rect x="224.86" y="168.291" width="16" height="2" rx="1" transform="rotate(-45 224.86 168.291)" fill="#D9D9D9"/>
<rect x="247.487" y="145.664" width="16" height="2" rx="1" transform="rotate(-45 247.487 145.664)" fill="#D9D9D9"/>
<rect x="270.115" y="123.037" width="16" height="2" rx="1" transform="rotate(-45 270.115 123.037)" fill="#D9D9D9"/>
<rect x="292.742" y="100.409" width="16" height="2" rx="1" transform="rotate(-45 292.742 100.409)" fill="#D9D9D9"/>
<rect x="101.823" y="316.784" width="16" height="2" rx="1" transform="rotate(-45 101.823 316.784)" fill="#D9D9D9"/>
<rect x="124.451" y="294.156" width="16" height="2" rx="1" transform="rotate(-45 124.451 294.156)" fill="#D9D9D9"/>
<rect x="147.078" y="271.529" width="16" height="2" rx="1" transform="rotate(-45 147.078 271.529)" fill="#D9D9D9"/>
<rect x="169.706" y="248.902" width="16" height="2" rx="1" transform="rotate(-45 169.706 248.902)" fill="#D9D9D9"/>
<rect x="192.333" y="226.274" width="16" height="2" rx="1" transform="rotate(-45 192.333 226.274)" fill="#D9D9D9"/>
<rect x="214.96" y="203.647" width="16" height="2" rx="1" transform="rotate(-45 214.96 203.647)" fill="#D9D9D9"/>
<rect x="237.588" y="181.019" width="16" height="2" rx="1" transform="rotate(-45 237.588 181.019)" fill="#D9D9D9"/>
<rect x="260.215" y="158.392" width="16" height="2" rx="1" transform="rotate(-45 260.215 158.392)" fill="#D9D9D9"/>
<rect x="282.843" y="135.765" width="16" height="2" rx="1" transform="rotate(-45 282.843 135.765)" fill="#D9D9D9"/>
<rect x="305.47" y="113.137" width="16" height="2" rx="1" transform="rotate(-45 305.47 113.137)" fill="#D9D9D9"/>
<rect x="114.551" y="329.512" width="16" height="2" rx="1" transform="rotate(-45 114.551 329.512)" fill="#D9D9D9"/>
<rect x="137.179" y="306.884" width="16" height="2" rx="1" transform="rotate(-45 137.179 306.884)" fill="#D9D9D9"/>
<rect x="159.806" y="284.257" width="16" height="2" rx="1" transform="rotate(-45 159.806 284.257)" fill="#D9D9D9"/>
<rect x="182.433" y="261.63" width="16" height="2" rx="1" transform="rotate(-45 182.433 261.63)" fill="#D9D9D9"/>
<rect x="205.061" y="239.002" width="16" height="2" rx="1" transform="rotate(-45 205.061 239.002)" fill="#D9D9D9"/>
<rect x="227.688" y="216.375" width="16" height="2" rx="1" transform="rotate(-45 227.688 216.375)" fill="#D9D9D9"/>
<rect x="250.316" y="193.747" width="16" height="2" rx="1" transform="rotate(-45 250.316 193.747)" fill="#D9D9D9"/>
<rect x="272.943" y="171.12" width="16" height="2" rx="1" transform="rotate(-45 272.943 171.12)" fill="#D9D9D9"/>
<rect x="295.571" y="148.492" width="16" height="2" rx="1" transform="rotate(-45 295.571 148.492)" fill="#D9D9D9"/>
<rect x="318.198" y="125.865" width="16" height="2" rx="1" transform="rotate(-45 318.198 125.865)" fill="#D9D9D9"/>
<rect x="127.279" y="342.24" width="16" height="2" rx="1" transform="rotate(-45 127.279 342.24)" fill="#D9D9D9"/>
<rect x="149.907" y="319.612" width="16" height="2" rx="1" transform="rotate(-45 149.907 319.612)" fill="#D9D9D9"/>
<rect x="172.534" y="296.985" width="16" height="2" rx="1" transform="rotate(-45 172.534 296.985)" fill="#D9D9D9"/>
<rect x="195.161" y="274.357" width="16" height="2" rx="1" transform="rotate(-45 195.161 274.357)" fill="#D9D9D9"/>
<rect x="217.789" y="251.73" width="16" height="2" rx="1" transform="rotate(-45 217.789 251.73)" fill="#D9D9D9"/>
<rect x="240.416" y="229.103" width="16" height="2" rx="1" transform="rotate(-45 240.416 229.103)" fill="#D9D9D9"/>
<rect x="263.044" y="206.475" width="16" height="2" rx="1" transform="rotate(-45 263.044 206.475)" fill="#D9D9D9"/>
<rect x="285.671" y="183.848" width="16" height="2" rx="1" transform="rotate(-45 285.671 183.848)" fill="#D9D9D9"/>
<rect x="308.299" y="161.22" width="16" height="2" rx="1" transform="rotate(-45 308.299 161.22)" fill="#D9D9D9"/>
<rect x="330.926" y="138.593" width="16" height="2" rx="1" transform="rotate(-45 330.926 138.593)" fill="#D9D9D9"/>
<rect x="140.007" y="354.968" width="16" height="2" rx="1" transform="rotate(-45 140.007 354.968)" fill="#D9D9D9"/>
<rect x="162.635" y="332.34" width="16" height="2" rx="1" transform="rotate(-45 162.635 332.34)" fill="#D9D9D9"/>
<rect x="185.262" y="309.713" width="16" height="2" rx="1" transform="rotate(-45 185.262 309.713)" fill="#D9D9D9"/>
<rect x="207.889" y="287.085" width="16" height="2" rx="1" transform="rotate(-45 207.889 287.085)" fill="#D9D9D9"/>
<rect x="230.517" y="264.458" width="16" height="2" rx="1" transform="rotate(-45 230.517 264.458)" fill="#D9D9D9"/>
<rect x="253.144" y="241.83" width="16" height="2" rx="1" transform="rotate(-45 253.144 241.83)" fill="#D9D9D9"/>
<rect x="275.772" y="219.203" width="16" height="2" rx="1" transform="rotate(-45 275.772 219.203)" fill="#D9D9D9"/>
<rect x="298.399" y="196.576" width="16" height="2" rx="1" transform="rotate(-45 298.399 196.576)" fill="#D9D9D9"/>
<rect x="321.026" y="173.948" width="16" height="2" rx="1" transform="rotate(-45 321.026 173.948)" fill="#D9D9D9"/>
<rect x="343.654" y="151.321" width="16" height="2" rx="1" transform="rotate(-45 343.654 151.321)" fill="#D9D9D9"/>
<rect x="152.735" y="367.696" width="16" height="2" rx="1" transform="rotate(-45 152.735 367.696)" fill="#D9D9D9"/>
<rect x="175.363" y="345.068" width="16" height="2" rx="1" transform="rotate(-45 175.363 345.068)" fill="#D9D9D9"/>
<rect x="197.99" y="322.441" width="16" height="2" rx="1" transform="rotate(-45 197.99 322.441)" fill="#D9D9D9"/>
<rect x="220.617" y="299.813" width="16" height="2" rx="1" transform="rotate(-45 220.617 299.813)" fill="#D9D9D9"/>
<rect x="243.245" y="277.186" width="16" height="2" rx="1" transform="rotate(-45 243.245 277.186)" fill="#D9D9D9"/>
<rect x="265.872" y="254.558" width="16" height="2" rx="1" transform="rotate(-45 265.872 254.558)" fill="#D9D9D9"/>
<rect x="288.5" y="231.931" width="16" height="2" rx="1" transform="rotate(-45 288.5 231.931)" fill="#D9D9D9"/>
<rect x="311.127" y="209.304" width="16" height="2" rx="1" transform="rotate(-45 311.127 209.304)" fill="#D9D9D9"/>
<rect x="333.754" y="186.676" width="16" height="2" rx="1" transform="rotate(-45 333.754 186.676)" fill="#D9D9D9"/>
<rect x="356.382" y="164.049" width="16" height="2" rx="1" transform="rotate(-45 356.382 164.049)" fill="#D9D9D9"/>
<rect x="165.463" y="380.423" width="16" height="2" rx="1" transform="rotate(-45 165.463 380.423)" fill="#D9D9D9"/>
<rect x="188.09" y="357.796" width="16" height="2" rx="1" transform="rotate(-45 188.09 357.796)" fill="#D9D9D9"/>
<rect x="210.718" y="335.169" width="16" height="2" rx="1" transform="rotate(-45 210.718 335.169)" fill="#D9D9D9"/>
<rect x="233.345" y="312.541" width="16" height="2" rx="1" transform="rotate(-45 233.345 312.541)" fill="#D9D9D9"/>
<rect x="255.973" y="289.914" width="16" height="2" rx="1" transform="rotate(-45 255.973 289.914)" fill="#D9D9D9"/>
<rect x="278.6" y="267.286" width="16" height="2" rx="1" transform="rotate(-45 278.6 267.286)" fill="#D9D9D9"/>
<rect x="301.228" y="244.659" width="16" height="2" rx="1" transform="rotate(-45 301.228 244.659)" fill="#D9D9D9"/>
<rect x="323.855" y="222.031" width="16" height="2" rx="1" transform="rotate(-45 323.855 222.031)" fill="#D9D9D9"/>
<rect x="346.482" y="199.404" width="16" height="2" rx="1" transform="rotate(-45 346.482 199.404)" fill="#D9D9D9"/>
<rect x="369.11" y="176.777" width="16" height="2" rx="1" transform="rotate(-45 369.11 176.777)" fill="#D9D9D9"/>
<rect x="178.191" y="393.151" width="16" height="2" rx="1" transform="rotate(-45 178.191 393.151)" fill="#D9D9D9"/>
<rect x="200.818" y="370.524" width="16" height="2" rx="1" transform="rotate(-45 200.818 370.524)" fill="#D9D9D9"/>
<rect x="223.446" y="347.896" width="16" height="2" rx="1" transform="rotate(-45 223.446 347.896)" fill="#D9D9D9"/>
<rect x="246.073" y="325.269" width="16" height="2" rx="1" transform="rotate(-45 246.073 325.269)" fill="#D9D9D9"/>
<rect x="268.701" y="302.642" width="16" height="2" rx="1" transform="rotate(-45 268.701 302.642)" fill="#D9D9D9"/>
<rect x="291.328" y="280.014" width="16" height="2" rx="1" transform="rotate(-45 291.328 280.014)" fill="#D9D9D9"/>
<rect x="313.955" y="257.387" width="16" height="2" rx="1" transform="rotate(-45 313.955 257.387)" fill="#D9D9D9"/>
<rect x="336.583" y="234.759" width="16" height="2" rx="1" transform="rotate(-45 336.583 234.759)" fill="#D9D9D9"/>
<rect x="359.21" y="212.132" width="16" height="2" rx="1" transform="rotate(-45 359.21 212.132)" fill="#D9D9D9"/>
<rect x="381.838" y="189.505" width="16" height="2" rx="1" transform="rotate(-45 381.838 189.505)" fill="#D9D9D9"/>
<rect x="190.919" y="405.879" width="16" height="2" rx="1" transform="rotate(-45 190.919 405.879)" fill="#D9D9D9"/>
<rect x="213.546" y="383.252" width="16" height="2" rx="1" transform="rotate(-45 213.546 383.252)" fill="#D9D9D9"/>
<rect x="236.174" y="360.624" width="16" height="2" rx="1" transform="rotate(-45 236.174 360.624)" fill="#D9D9D9"/>
<rect x="258.801" y="337.997" width="16" height="2" rx="1" transform="rotate(-45 258.801 337.997)" fill="#D9D9D9"/>
<rect x="281.428" y="315.37" width="16" height="2" rx="1" transform="rotate(-45 281.428 315.37)" fill="#D9D9D9"/>
<rect x="304.056" y="292.742" width="16" height="2" rx="1" transform="rotate(-45 304.056 292.742)" fill="#D9D9D9"/>
<rect x="326.683" y="270.115" width="16" height="2" rx="1" transform="rotate(-45 326.683 270.115)" fill="#D9D9D9"/>
<rect x="349.311" y="247.487" width="16" height="2" rx="1" transform="rotate(-45 349.311 247.487)" fill="#D9D9D9"/>
<rect x="371.938" y="224.86" width="16" height="2" rx="1" transform="rotate(-45 371.938 224.86)" fill="#D9D9D9"/>
<rect x="394.566" y="202.233" width="16" height="2" rx="1" transform="rotate(-45 394.566 202.233)" fill="#D9D9D9"/>
</mask>
<g mask="url(#mask0_211_42)">
<circle cx="201.647" cy="201.647" r="144" transform="rotate(-45 201.647 201.647)" fill="#B4D335"/>
</g>
</svg>
