<svg width="84" height="28" viewBox="0 0 84 28" fill="none" xmlns="http://www.w3.org/2000/svg">
<g clip-path="url(#clip0_7_6)">
<path d="M50.7663 15.3424C50.7663 14.9429 51.0807 11.0973 55.247 11.0973C58.0093 11.0973 59.0061 12.6877 59.5295 15.3424H50.7663ZM55.3953 6.96775C49.1907 6.96775 45.3763 11.7566 45.3763 17.4941C45.3763 22.4518 48.1701 27.9496 55.3953 27.9496C61.9512 27.9496 63.8149 23.6723 64.5741 21.2809H61.1551C60.3673 21.2809 59.7945 21.5976 59.2592 22.2684C59.0353 22.5287 57.8896 23.8618 55.587 23.8618C50.9235 23.8618 50.8568 20.0986 50.7663 18.8127H64.9171C65.316 13.037 62.312 6.96775 55.3953 6.96775ZM68.2552 0.003077V22.4427C68.2957 26.2235 68.9786 27.5361 73.6106 27.5361L73.6077 4.42804C73.5695 0.709594 72.8604 0.00247192 68.2546 0.00247192M78.6523 0.003077V22.4427C78.6928 26.2235 79.3787 27.5361 84.0077 27.5361L84.0018 4.42804C83.9667 0.709594 83.2605 0.003077 78.6523 0.003077ZM39.4825 19.8146C39.4825 19.8146 38.2559 19.7704 37.7849 21.083C37.1162 22.9513 35.892 23.8618 33.8073 23.8618C30.5657 23.8618 29.3325 20.7221 29.3325 17.4971C29.3325 14.4349 30.6008 11.0973 33.9234 11.0973C35.9968 11.0973 37.0954 12.0405 37.567 13.2647C37.823 13.9294 38.2035 14.5324 39.3926 14.5324H43.1809C42.8933 9.38275 38.5376 6.96775 33.9556 6.96775C27.2044 6.96775 23.9479 11.9455 23.9479 17.7338C23.9479 24.2136 28.3703 27.9502 33.8425 27.9502C38.6281 27.9502 42.5384 25.5085 43.2886 19.8146H39.4825Z" fill="white"/>
<path d="M0.0110168 27.5363H5.94227V18.6712L9.353 15.1562C9.353 15.1562 12.647 20.1315 14.8597 23.5218C17.0807 26.9036 18.1448 27.5363 22.1105 27.5363H24.9865L13.3824 10.8753L23.9599 0.00328249H21.0613C18.2555 0.00328249 16.4382 0.106203 14.2083 2.50727C11.9664 4.89866 5.94227 11.4196 5.94227 11.4196V5.35696C5.93394 1.36304 5.26227 -0.00579834 0.011612 -0.00579834L0.0110168 27.5363Z" fill="white"/>
</g>
<defs>
<clipPath id="clip0_7_6">
<rect width="84" height="28" fill="white"/>
</clipPath>
</defs>
</svg>
