<svg width="249" height="199" viewBox="0 0 249 199" fill="none" xmlns="http://www.w3.org/2000/svg">
<path d="M168.614 71.23H101.108C99.2084 71.23 97.6687 69.6886 97.6687 67.787V3.44315C97.6687 1.54151 99.2084 0 101.108 0H168.614C170.514 0 172.053 1.54151 172.053 3.44315V67.787C172.053 69.6886 170.514 71.23 168.614 71.23Z" fill="#B44CE4"/>
<path d="M139.785 10.3108H107.755C107.184 10.3108 106.722 9.84806 106.722 9.27731C106.722 8.70656 107.184 8.24396 107.755 8.24396H139.785C140.355 8.24396 140.817 8.70656 140.817 9.27731C140.817 9.84806 140.355 10.3108 139.785 10.3108Z" fill="#F6D0FF"/>
<path d="M129.488 15.466H107.755C107.184 15.466 106.722 15.0034 106.722 14.4327C106.722 13.8619 107.184 13.3992 107.755 13.3992H129.488C130.058 13.3992 130.52 13.8619 130.52 14.4327C130.52 15.0034 130.057 15.466 129.488 15.466Z" fill="#F6D0FF"/>
<path d="M113.184 23.9136H107.46C107.052 23.9136 106.722 23.5833 106.722 23.1755C106.722 22.7678 107.052 22.4374 107.46 22.4374H113.184C113.591 22.4374 113.921 22.7678 113.921 23.1755C113.921 23.5833 113.59 23.9136 113.184 23.9136Z" fill="#6A2C91"/>
<path d="M155.182 49.261H137.493C137.085 49.261 136.755 48.9307 136.755 48.5229V45.5408C136.755 45.133 137.085 44.8027 137.493 44.8027H155.182C155.589 44.8027 155.919 45.133 155.919 45.5408V48.5229C155.919 48.9307 155.589 49.261 155.182 49.261Z" fill="#F6D0FF"/>
<path d="M162.309 57.3648H137.492C137.085 57.3648 136.755 57.0344 136.755 56.6267V53.6445C136.755 53.2368 137.085 52.9064 137.492 52.9064H162.309C162.717 52.9064 163.047 53.2368 163.047 53.6445V56.6267C163.047 57.0344 162.717 57.3648 162.309 57.3648Z" fill="#F6D0FF"/>
<path d="M117.739 62.1759C117.739 61.4157 118.354 60.7991 119.114 60.7991C113.763 60.7991 109.409 56.4407 109.409 51.0834C109.409 45.7262 113.763 41.3677 119.114 41.3677C124.465 41.3677 128.819 45.7262 128.819 51.0834C128.819 50.3233 129.434 49.7068 130.194 49.7068C130.953 49.7068 131.569 50.3229 131.569 51.0834C131.569 44.2081 125.982 38.6147 119.114 38.6147C112.247 38.6147 106.66 44.2081 106.66 51.0834C106.66 57.9588 112.247 63.5522 119.114 63.5522C118.354 63.5526 117.739 62.9364 117.739 62.1759Z" fill="#F6D0FF"/>
<path d="M130.194 49.7071C129.435 49.7071 128.819 50.3232 128.819 51.0837C128.819 56.441 124.465 60.7994 119.114 60.7994C118.355 60.7994 117.739 61.4161 117.739 62.1762C117.739 62.9363 118.354 63.5529 119.114 63.5529C125.982 63.5529 131.569 57.9591 131.569 51.0842C131.569 50.3232 130.953 49.7071 130.194 49.7071Z" fill="#6A2C91"/>
<path d="M46.2328 167.804H31.2034C30.0675 167.804 29.1467 166.882 29.1467 165.745V127.553C29.1467 126.416 30.0675 125.494 31.2034 125.494H46.2328V167.804Z" fill="#BB73DD"/>
<path d="M89.5602 167.804H46.2328V125.494H89.5602C90.6961 125.494 91.6169 126.416 91.6169 127.553V165.745C91.6169 166.882 90.6961 167.804 89.5602 167.804Z" fill="#A854CF"/>
<path d="M86.8863 131.572H50.9634V145.064H86.8863V131.572Z" fill="#F6D0FF"/>
<path d="M86.8863 148.234H50.9634V161.726H86.8863V148.234Z" fill="#F6D0FF"/>
<path d="M75.4125 142.548H62.4373C62.1734 142.548 61.9592 142.334 61.9592 142.069V141.876C61.9592 141.612 62.173 141.398 62.4373 141.398H75.4125C75.6764 141.398 75.8906 141.612 75.8906 141.876V142.069C75.8906 142.334 75.6768 142.548 75.4125 142.548Z" fill="#A854CF"/>
<path d="M75.4125 159.21H62.4373C62.1734 159.21 61.9592 158.996 61.9592 158.732V158.539C61.9592 158.274 62.173 158.06 62.4373 158.06H75.4125C75.6764 158.06 75.8906 158.274 75.8906 158.539V158.732C75.8906 158.996 75.6768 159.21 75.4125 159.21Z" fill="#A854CF"/>
<path d="M35.0038 167.804L34.3304 172.578L30.6044 199H29.1467L31.6349 172.493L32.075 167.804H35.0038Z" fill="#F6D0FF"/>
<path d="M52.3835 167.804L51.6328 173.128L47.9841 199H46.5269L48.9632 173.043L49.4552 167.804H52.3835Z" fill="#F6D0FF"/>
<path d="M91.6169 199H90.1592L86.6678 174.24L85.7599 167.804H88.6886L89.3006 174.324L91.6169 199Z" fill="#F6D0FF"/>
<path d="M74.2372 199H72.7796L69.2099 173.686L68.3806 167.804H71.3089L71.8691 173.771L74.2372 199Z" fill="#F6D0FF"/>
<path d="M32.075 167.804H35.0037L34.3304 172.578L31.6349 172.493L32.075 167.804Z" fill="#A854CF"/>
<path d="M49.4552 167.804H52.3835L51.6329 173.128L48.9633 173.043L49.4552 167.804Z" fill="#A854CF"/>
<path d="M71.3089 167.804L71.8691 173.771L69.2099 173.686L68.3806 167.804H71.3089Z" fill="#A854CF"/>
<path d="M89.3006 174.324L86.6678 174.24L85.7599 167.804H88.6886L89.3006 174.324Z" fill="#A854CF"/>
<path d="M221.663 134.614V134.017C221.663 133.832 221.513 133.682 221.329 133.682H207.474C206.776 133.682 206.209 134.249 206.209 134.949V135.968C206.209 136.668 206.776 137.235 207.474 137.235H221.329C221.513 137.235 221.663 137.085 221.663 136.901V136.303C221.663 136.119 221.513 135.969 221.329 135.969H207.984C207.703 135.969 207.474 135.74 207.474 135.459C207.474 135.178 207.703 134.949 207.984 134.949H221.329C221.513 134.949 221.663 134.799 221.663 134.614Z" fill="#6A2C91"/>
<path d="M221.065 134.949V135.968H207.984C207.702 135.968 207.474 135.74 207.474 135.459C207.474 135.177 207.702 134.949 207.984 134.949H221.065Z" fill="#F6D0FF"/>
<path d="M220.673 131.061V130.463C220.673 130.278 220.524 130.128 220.339 130.128H208.464C207.765 130.128 207.198 130.695 207.198 131.395V132.414C207.198 133.114 207.765 133.681 208.464 133.681H220.339C220.524 133.681 220.673 133.531 220.673 133.346V132.748C220.673 132.564 220.524 132.413 220.339 132.413H208.974C208.692 132.413 208.464 132.185 208.464 131.904C208.464 131.623 208.692 131.394 208.974 131.394H220.339C220.524 131.395 220.673 131.246 220.673 131.061Z" fill="#FE9ECC"/>
<path d="M220.233 131.395V132.414H208.974C208.692 132.414 208.464 132.186 208.464 131.905C208.464 131.624 208.692 131.395 208.974 131.395H220.233Z" fill="#FFD9E8"/>
<path d="M210.608 139.58L203.267 199H201.81L209.151 139.58H210.608Z" fill="#F6D0FF"/>
<path d="M229.897 199H228.44L222.16 148.165L221.099 139.58H222.556L223.602 148.043L229.897 199Z" fill="#F6D0FF"/>
<path d="M137.513 139.58L135.549 155.477L130.172 199H128.715L134.076 155.602L136.055 139.58H137.513Z" fill="#F6D0FF"/>
<path d="M156.802 199H155.345L149.819 154.273L148.004 139.58H149.461L151.261 154.151L156.802 199Z" fill="#F6D0FF"/>
<path d="M136.055 139.58H137.513L135.549 155.477L134.076 155.602L136.055 139.58Z" fill="#A854CF"/>
<path d="M149.461 139.58L151.261 154.151L149.819 154.273L148.004 139.58H149.461Z" fill="#A854CF"/>
<path d="M223.602 148.043L222.16 148.165L221.099 139.58H222.556L223.602 148.043Z" fill="#A854CF"/>
<path d="M226.616 139.58H152.085V137.235H226.616C227.154 137.235 227.59 137.672 227.59 138.211V138.605C227.59 139.144 227.154 139.58 226.616 139.58Z" fill="#F6D0FF"/>
<path d="M152.085 139.58H132.365C131.826 139.58 131.39 139.144 131.39 138.605V138.211C131.39 137.672 131.826 137.235 132.365 137.235H152.085V139.58Z" fill="#BB73DD"/>
<path d="M152.068 131.533H158.606C158.929 131.533 159.178 131.815 159.14 132.135L158.587 136.761C158.555 137.031 158.326 137.235 158.053 137.235H152.622C152.349 137.235 152.12 137.031 152.087 136.761L151.535 132.135C151.496 131.815 151.746 131.533 152.068 131.533Z" fill="#F6D0FF"/>
<path d="M157.581 129.646V127.543L156.325 129.933V126.051L155.337 128.496L154.35 126.051V129.933L153.093 127.543V129.646L151.261 126.698L152.068 131.533H155.337H158.606L159.413 126.698L157.581 129.646Z" fill="#6A2C91"/>
<path d="M204.728 131.228H163.827L168.387 106.619H209.288L204.728 131.228Z" fill="#F6D0FF"/>
<path d="M184.077 120.359H188.671L194.718 137.235H186.693L184.077 120.359Z" fill="#BB73DD"/>
<path d="M183.911 136.152H170.259C170.01 136.152 169.809 136.354 169.809 136.602V136.784C169.809 137.034 170.011 137.235 170.259 137.235H183.911C184.16 137.235 184.362 137.033 184.362 136.784V136.602C184.361 136.353 184.16 136.152 183.911 136.152Z" fill="#BB73DD"/>
<path d="M184.077 120.359V131.228H185.762L184.077 120.359Z" fill="#A854CF"/>
<path d="M91.3392 68.1531C85.6856 69.0966 78.6413 66.99 77.758 65.6487C75.7113 68.7714 74.6712 68.6738 74.6712 68.6738V71.0156L74.2091 70.5529C74.0666 70.2299 73.8403 69.9099 73.5017 69.9099C71.6402 69.9099 71.5101 75.0934 74.6431 75.3931C74.7049 75.5963 74.7688 75.786 74.8341 75.9581V84.2547H81.9008V80.9916C82.3759 81.1222 82.8311 81.1969 83.2492 81.1969C86.0354 81.1969 90.7829 77.0953 91.3215 70.5529C91.3534 69.318 91.3392 68.1531 91.3392 68.1531Z" fill="#FCBEB7"/>
<path d="M82.7616 59.2733C77.888 59.2733 76.9132 61.8753 76.9132 61.8753C74.8336 61.8753 71.6496 65.6812 73.5668 69.9095L73.5768 69.9194L74.6716 71.0156V68.6737C74.6716 68.6737 75.7112 68.7714 77.7584 65.6487C78.6417 66.9904 85.686 69.0966 91.3396 68.1531C91.3396 68.1531 91.3543 69.318 91.3219 70.5524C91.3219 70.5537 91.3219 70.5551 91.3219 70.5564C93.433 64.4416 89.1947 59.2733 82.7616 59.2733Z" fill="#311643"/>
<path d="M80.6662 71.2651C80.4506 71.2651 80.2761 71.0903 80.2761 70.8746V70.1456C80.2761 69.9298 80.4506 69.7552 80.6662 69.7552C80.8817 69.7552 81.0561 69.9298 81.0561 70.1456V70.8746C81.0557 71.0903 80.8812 71.2651 80.6662 71.2651Z" fill="#311643"/>
<path d="M87.8952 71.2651C87.6796 71.2651 87.5051 71.0903 87.5051 70.8746V70.1456C87.5051 69.9298 87.6796 69.7552 87.8952 69.7552C88.1107 69.7552 88.2852 69.9298 88.2852 70.1456V70.8746C88.2847 71.0903 88.1103 71.2651 87.8952 71.2651Z" fill="#311643"/>
<path d="M83.5327 76.8952C82.8369 76.8952 82.3632 76.6331 82.076 76.3945C81.714 76.0935 81.5637 75.7653 81.5572 75.7515C81.5166 75.6615 81.5568 75.5557 81.6466 75.515C81.7365 75.4744 81.8419 75.5145 81.8829 75.604C81.9032 75.6481 82.3973 76.6859 83.8333 76.5195C83.9314 76.5082 84.0199 76.5783 84.0312 76.6769C84.0424 76.7754 83.9724 76.8636 83.8744 76.8749C83.7552 76.8887 83.6411 76.8952 83.5327 76.8952Z" fill="#311643"/>
<path d="M78.0773 75.575C79.1421 75.575 80.0053 74.7108 80.0053 73.6448C80.0053 72.5788 79.1421 71.7147 78.0773 71.7147C77.0125 71.7147 76.1493 72.5788 76.1493 73.6448C76.1493 74.7108 77.0125 75.575 78.0773 75.575Z" fill="#F49795"/>
<path d="M91.1206 72.0429C90.8762 73.3392 90.4668 74.5208 89.9489 75.5728C88.9292 75.5226 88.1185 74.6786 88.1185 73.6452C88.1185 72.5794 88.9815 71.7155 90.0461 71.7155C90.4439 71.7151 90.8136 71.8358 91.1206 72.0429Z" fill="#F49795"/>
<path d="M87.8952 67.7751C86.4876 67.7751 85.3254 68.8466 85.1789 70.2172C84.4136 69.8566 83.7381 70.0521 83.3818 70.216C83.2349 68.8457 82.0731 67.7747 80.666 67.7747C79.1595 67.7747 77.9342 69.0018 77.9342 70.5095C77.9342 72.0173 79.16 73.2444 80.666 73.2444C82.1384 73.2444 83.3421 72.0718 83.3952 70.6104C83.6215 70.4819 84.3484 70.1494 85.1655 70.6125C85.22 72.0726 86.4232 73.2439 87.8947 73.2439C89.4012 73.2439 90.6265 72.0168 90.6265 70.5091C90.6265 69.0014 89.4017 67.7751 87.8952 67.7751ZM80.666 72.8872C79.3569 72.8872 78.2914 71.821 78.2914 70.51C78.2914 69.1994 79.3565 68.1328 80.666 68.1328C81.9755 68.1328 83.0406 69.199 83.0406 70.51C83.0401 71.821 81.9751 72.8872 80.666 72.8872ZM87.8952 72.8872C86.5861 72.8872 85.5206 71.821 85.5206 70.51C85.5206 69.1994 86.5857 68.1328 87.8952 68.1328C89.2047 68.1328 90.2697 69.199 90.2697 70.51C90.2697 71.821 89.2043 72.8872 87.8952 72.8872Z" fill="white"/>
<path d="M81.9006 84.2543V80.991C80.3025 80.5513 78.4834 79.4743 77.116 78.4474L81.9006 84.2543Z" fill="#F9AFAB"/>
<path d="M98.7955 189.574H91.3111L84.0517 150.923L78.7264 134.172L65.8346 189.574H58.3501L65.3236 127.418H92.9739L98.7955 189.574Z" fill="#6A2C91"/>
<path d="M91.9054 192.586V197.882C91.9054 198.499 92.4056 199 93.0223 199H108.024C108.167 199 108.282 198.884 108.282 198.741V197.721C108.282 197.276 108.027 196.869 107.627 196.676L99.1678 192.587H91.9054V192.586Z" fill="#2F3D6C"/>
<path d="M65.0204 192.586V197.882C65.0204 198.499 64.5203 199 63.9035 199H48.9018C48.7593 199 48.6436 198.884 48.6436 198.741V197.721C48.6436 197.276 48.8984 196.869 49.2992 196.676L57.758 192.587H65.0204V192.586Z" fill="#2F3D6C"/>
<path d="M91.3112 189.574L91.8748 192.586H99.1679L98.7956 189.574H91.3112Z" fill="#FCBEB7"/>
<path d="M58.3502 189.574L57.7581 192.586H65.0205L65.8346 189.574H58.3502Z" fill="#FCBEB7"/>
<path d="M65.1743 128.751L93.2479 130.339L92.9741 127.418H65.3237" fill="#49146A"/>
<path d="M81.8913 81.4703L92.5886 86.1184C93.3721 86.4561 94.0403 87.0148 94.5119 87.7265L98.795 94.188L92.7553 99.5232L91.1418 98.1435L92.9734 127.419H65.3231L67.0175 108.33L66.6417 98.1435L65.2065 99.5752L58.826 94.6645L62.2545 89.0711C63.1023 87.6879 64.328 86.5759 65.7866 85.8672L74.8362 81.4698C74.837 81.4703 78.941 84.1666 81.8913 81.4703Z" fill="#B44CE4"/>
<path d="M83.8698 82.3298C82.4407 83.4864 80.6742 84.1142 78.811 84.1142C76.8376 84.1142 74.9722 83.4094 73.502 82.1188L73.223 82.2545C74.7589 83.6416 76.7266 84.4008 78.8105 84.4008C80.7899 84.4008 82.6644 83.7164 84.164 82.4582L83.8698 82.3298Z" fill="white"/>
<path d="M65.4442 86.7803C65.4442 88.0943 64.3799 89.1592 63.0674 89.1592C62.7923 89.1592 62.5288 89.1125 62.2831 89.0264C63.0419 87.8058 64.0962 86.7992 65.3452 86.0988C65.4092 86.3149 65.4442 86.5433 65.4442 86.7803Z" fill="#8450A5"/>
<path d="M95.1468 88.684C94.822 88.8504 94.454 88.9447 94.064 88.9447C92.7515 88.9447 91.6873 87.8798 91.6873 86.5658C91.6873 86.2921 91.7335 86.0288 91.8186 85.7841L92.5886 86.1187C93.3721 86.4564 94.0407 87.0155 94.5119 87.7267L95.1468 88.684Z" fill="#8450A5"/>
<path d="M66.8802 155.727C68.8588 155.727 70.4628 154.121 70.4628 152.14C70.4628 150.159 68.8588 148.554 66.8802 148.554C64.9016 148.554 63.2976 150.159 63.2976 152.14C63.2976 154.121 64.9016 155.727 66.8802 155.727Z" fill="#49146A"/>
<path d="M90.7804 155.727C92.759 155.727 94.363 154.121 94.363 152.14C94.363 150.159 92.759 148.554 90.7804 148.554C88.8018 148.554 87.1978 150.159 87.1978 152.14C87.1978 154.121 88.8018 155.727 90.7804 155.727Z" fill="#49146A"/>
<path d="M129.347 87.1863L129.047 87.1362L129 86.9524C128.912 86.606 128.611 86.3561 128.255 86.3319L124.046 86.0474L121.118 84.8553L122.753 82.8131C123.024 82.475 122.986 81.9843 122.666 81.6915L119.218 84.3516C118.88 84.6128 118.599 84.941 118.394 85.3154L117.314 87.284L117.32 87.2909L101.552 98.3237L98.7952 94.1879L92.7555 99.5231L100.316 106.216C100.764 106.603 101.431 106.596 101.871 106.2L119.618 90.2126L123.015 90.536C123.782 90.6091 124.555 90.5316 125.291 90.309L127.095 89.7633C127.401 89.6708 127.561 89.3339 127.439 89.0378L128.723 88.7904C128.964 88.7442 129.145 88.5466 129.17 88.3031L129.192 88.0952H129.271C129.523 88.0952 129.728 87.8902 129.728 87.6377C129.729 87.4137 129.567 87.2226 129.347 87.1863Z" fill="#FCBEB7"/>
<path d="M71.4696 125.184L68.6575 123.927C68.4627 123.84 68.3115 123.678 68.2389 123.477L67.8312 122.354L69.2522 122.702L69.7052 123.677C69.8577 124.004 70.243 124.152 70.5751 124.009L69.9834 122.22C69.8728 121.936 69.6594 121.703 69.3856 121.568L66.4163 120.106L61.294 103.473L65.2074 99.5755L58.8269 94.6648L55.0962 101.165C54.5831 102.059 54.5209 103.142 54.9273 104.088L65.2817 127.793L67.3367 127.888C67.5837 127.9 67.817 127.774 67.9439 127.562L68.1677 127.188L69.2492 127.277C69.4807 127.296 69.7057 127.194 69.8439 127.006L70.0983 126.663L70.2498 126.703C70.664 126.812 71.099 126.623 71.3016 126.245L72.0522 126.496C72.2224 125.974 71.9706 125.408 71.4696 125.184Z" fill="#FCBEB7"/>
<path d="M57.2756 102.668C57.2756 103.839 56.4399 104.816 55.3321 105.031L54.9274 104.088C54.5205 103.141 54.5832 102.058 55.0962 101.164L55.5579 100.36C56.5513 100.656 57.2756 101.577 57.2756 102.668Z" fill="#F9AFAB"/>
<path d="M103.576 104.662L101.871 106.2C101.431 106.597 100.765 106.604 100.316 106.216L98.6458 104.772C99.1278 103.887 100.065 103.287 101.143 103.287C102.175 103.287 103.078 103.838 103.576 104.662Z" fill="#F9AFAB"/>
<path d="M178.39 71.7502V84.2393H184.749H190.599H191.003H198.923C198.923 84.2393 198.923 74.6489 198.923 69.0742C198.923 63.0774 194.103 62.0345 194.103 62.0345C194.103 62.0345 192.35 59.217 187.25 59.217C181.114 59.217 177.021 62.9805 177.021 67.6261C177.022 69.7595 177.888 71.1332 178.39 71.7502ZM178.494 69.6778C179.27 69.5023 181.452 67.5781 181.452 65.6047C183.159 68.4329 188.379 72.5025 196.14 70.0185V70.0189C196.164 70.0154 196.188 70.0133 196.214 70.0133C198.06 70.0133 198.189 75.1539 195.082 75.4509C195.036 75.6018 194.989 75.7451 194.941 75.8795V84.2393H187.933V80.9898C187.444 81.1278 186.976 81.2069 186.547 81.2069C183.648 81.2069 178.609 76.73 178.494 69.6778Z" fill="#311643"/>
<path d="M187.933 81.754V80.9899C187.444 81.1278 186.976 81.2069 186.547 81.2069C183.648 81.2069 178.609 76.73 178.494 69.6774C179.271 69.5018 181.452 67.5777 181.452 65.6043C183.16 68.4325 188.379 72.5022 196.141 70.0181V70.0185C196.165 70.0151 196.189 70.0129 196.214 70.0129C198.061 70.0129 198.19 75.1535 195.082 75.4506C195.037 75.6015 194.99 75.7446 194.942 75.8791V81.5027L200.431 84.0931V90.8756H182.19V83.4817L187.933 81.754Z" fill="#FCBEB7"/>
<path d="M182.19 90.8759V83.4821L187.933 81.7543V80.9902C189.557 80.5315 191.403 79.4202 192.758 78.3834L182.19 90.8759Z" fill="#F9AFAB"/>
<path d="M191.676 75.6318C192.732 75.6318 193.588 74.7747 193.588 73.7176C193.588 72.6604 192.732 71.8034 191.676 71.8034C190.62 71.8034 189.764 72.6604 189.764 73.7176C189.764 74.7747 190.62 75.6318 191.676 75.6318Z" fill="#F49795"/>
<path d="M178.74 72.1285C178.982 73.414 179.389 74.5862 179.902 75.6291C180.913 75.579 181.717 74.7423 181.717 73.7176C181.717 72.6604 180.861 71.8038 179.806 71.8038C179.411 71.8034 179.044 71.9232 178.74 72.1285Z" fill="#F49795"/>
<path d="M179.264 70.6086C179.264 72.1043 180.48 73.321 181.974 73.321C183.433 73.321 184.626 72.1592 184.68 70.7111C185.496 70.2481 186.211 70.5784 186.436 70.7081C186.489 72.1579 187.682 73.321 189.143 73.321C190.637 73.321 191.852 72.1043 191.852 70.6086C191.852 69.113 190.637 67.8963 189.143 67.8963C187.747 67.8963 186.595 68.9583 186.449 70.3173C186.096 70.1547 185.426 69.961 184.667 70.3186C184.522 68.9591 183.369 67.8963 181.973 67.8963C180.48 67.8959 179.264 69.113 179.264 70.6086ZM186.788 70.6086C186.788 69.3089 187.845 68.2513 189.144 68.2513C190.442 68.2513 191.499 69.3089 191.499 70.6086C191.499 71.9088 190.442 72.9665 189.144 72.9665C187.845 72.9661 186.788 71.9084 186.788 70.6086ZM179.619 70.6086C179.619 69.3089 180.675 68.2513 181.974 68.2513C183.273 68.2513 184.329 69.3089 184.329 70.6086C184.329 71.9088 183.273 72.9665 181.974 72.9665C180.675 72.9665 179.619 71.9084 179.619 70.6086Z" fill="white"/>
<path d="M181.972 71.3571C182.185 71.3571 182.359 71.1838 182.359 70.9702V70.2468C182.359 70.0332 182.185 69.8598 181.972 69.8598C181.759 69.8598 181.585 70.0332 181.585 70.2468V70.9702C181.585 71.1838 181.759 71.3571 181.972 71.3571Z" fill="#311643"/>
<path d="M189.026 71.3571C189.239 71.3571 189.412 71.1838 189.412 70.9702V70.2468C189.412 70.0332 189.239 69.8598 189.026 69.8598C188.812 69.8598 188.639 70.0332 188.639 70.2468V70.9702C188.639 71.1838 188.812 71.3571 189.026 71.3571Z" fill="#311643"/>
<path d="M186.266 76.9405C186.956 76.9405 187.426 76.6806 187.71 76.4441C188.069 76.1458 188.218 75.8201 188.225 75.8063C188.265 75.7168 188.225 75.6122 188.136 75.5715C188.047 75.5313 187.942 75.5711 187.902 75.6598C187.881 75.7035 187.391 76.7325 185.967 76.5677C185.869 76.5565 185.782 76.6261 185.771 76.7239C185.759 76.8211 185.829 76.9094 185.926 76.9206C186.045 76.9345 186.158 76.9405 186.266 76.9405Z" fill="#311643"/>
<path d="M174.708 189.541L173.982 192.558L166.074 195.045L167.211 189.541H174.708Z" fill="#FCBEB7"/>
<path d="M201.353 189.541L201.138 193.268L201.63 193.45L201.955 195.046L194.054 192.558L193.857 189.541H201.353Z" fill="#FCBEB7"/>
<path d="M159.974 196.217L166.404 193.45L166.074 195.045L173.983 192.559V194.828C173.983 195.625 173.566 196.349 172.911 196.755L172.23 198.702C172.172 198.87 172.013 198.983 171.835 198.983C171.603 198.983 171.416 198.795 171.416 198.563V197.297L166.011 198.983H160.543C159.748 198.983 159.103 198.338 159.103 197.542C159.103 196.965 159.446 196.444 159.974 196.217Z" fill="#2F3D6C"/>
<path d="M194.047 194.805L194.054 192.536L201.955 195.046L201.63 193.45L208.051 196.236C208.579 196.465 208.92 196.986 208.919 197.562C208.916 198.358 208.27 199.002 207.475 198.999L202.007 198.983L196.418 197.222L196.414 198.548C196.413 198.78 196.225 198.967 195.994 198.966C195.816 198.966 195.657 198.852 195.599 198.684L194.861 196.552C194.355 196.129 194.045 195.495 194.047 194.805Z" fill="#2F3D6C"/>
<path d="M200.158 113.649L203.075 126.016C203.917 129.587 204.249 133.26 204.06 136.924L201.353 189.541H193.857L190.656 134.934L174.707 189.541H167.21L180.41 113.648H200.158V113.649Z" fill="#6A2C91"/>
<path d="M190.239 87.5305C188.907 87.5305 187.843 86.2472 187.125 84.9474H194.716C193.558 86.2437 191.973 87.5305 190.239 87.5305Z" fill="white"/>
<path d="M176.035 87.63C177.206 85.8066 178.985 84.4589 181.056 83.8276L186.087 82.294C186.087 82.5059 186.455 83.7338 187.125 84.9475C187.843 86.2473 188.907 87.5306 190.239 87.5306C191.973 87.5306 193.558 86.2438 194.716 84.9475C195.891 83.6322 196.625 82.3074 196.625 82.3074L201.851 84.7314C203.99 85.7237 205.565 87.6327 206.134 89.9235L209.99 105.447L202.9 105.449L201.16 99.4208L200.158 113.648H180.411L178.617 98.505L173.913 102.741L170.01 97.0185L176.035 87.63Z" fill="#FE9ECC"/>
<path d="M147.575 81.7539L147.875 81.7038L147.922 81.5196C148.011 81.1728 148.311 80.922 148.668 80.8978L152.884 80.6128L155.817 79.419L154.179 77.3734C153.908 77.0344 153.946 76.5428 154.266 76.2501L157.72 78.9144C158.059 79.1755 158.34 79.5046 158.546 79.88L159.495 81.6116L159.499 81.606L173.912 102.742L171.932 104.553C170.295 106.05 167.682 105.564 166.692 103.577L157.328 84.7849L153.916 85.1101C153.148 85.1831 152.374 85.1057 151.636 84.8826L149.829 84.3361C149.523 84.2431 149.363 83.9059 149.485 83.6093L148.198 83.3615C147.958 83.3153 147.776 83.1167 147.75 82.8733L147.728 82.6649H147.65C147.397 82.6649 147.192 82.4595 147.192 82.2066C147.192 81.9817 147.354 81.7907 147.575 81.7539Z" fill="#FCBEB7"/>
<path d="M170.01 97.0189L175.49 101.321L173.912 102.741L170.01 97.0189Z" fill="#FF78BA"/>
<path d="M190.043 89.3794C191.141 89.3794 192.258 89.0447 193.364 88.3854C194.241 87.8617 195.114 87.1332 195.957 86.2191C197.388 84.6681 198.257 83.0844 198.265 83.0684L197.975 82.9334C197.966 82.949 197.121 84.4831 195.715 86.0051C194.894 86.895 194.046 87.6028 193.196 88.1095C192.142 88.7378 191.081 89.056 190.043 89.056C189.062 89.056 188.179 88.7279 187.418 88.081C186.802 87.5578 186.262 86.8249 185.813 85.9039C185.044 84.3235 184.807 82.6999 184.804 82.6839L184.492 82.779C184.502 82.8465 184.732 84.4196 185.523 86.0453C185.992 87.007 186.559 87.7744 187.209 88.327C188.031 89.0257 188.984 89.3794 190.043 89.3794Z" fill="white"/>
<path d="M178.276 155.638C180.258 155.638 181.864 154.029 181.864 152.046C181.864 150.062 180.258 148.453 178.276 148.453C176.294 148.453 174.688 150.062 174.688 152.046C174.688 154.029 176.294 155.638 178.276 155.638Z" fill="#49146A"/>
<path d="M197.076 155.638C199.058 155.638 200.664 154.029 200.664 152.046C200.664 150.062 199.058 148.453 197.076 148.453C195.094 148.453 193.488 150.062 193.488 152.046C193.488 154.029 195.094 155.638 197.076 155.638Z" fill="#49146A"/>
<path d="M176.521 86.9438C176.883 87.1825 177.316 87.3213 177.782 87.3213C179.047 87.3213 180.074 86.2943 180.074 85.027C180.074 84.7542 180.026 84.4926 179.939 84.2501C178.601 84.8584 177.428 85.7816 176.521 86.9438Z" fill="#FF78BA"/>
<path d="M201.82 86.3284C201.82 87.5953 202.846 88.6232 204.112 88.6232C204.621 88.6232 205.09 88.4576 205.47 88.1769C204.756 86.8167 203.65 85.6881 202.281 84.9479C201.992 85.3318 201.82 85.81 201.82 86.3284Z" fill="#FF78BA"/>
<path d="M194.608 117.965L178.148 117.343C177.852 117.331 177.622 117.082 177.632 116.786L178.513 93.4457C178.524 93.1491 178.773 92.9181 179.069 92.929L195.529 93.5511C195.825 93.5624 196.055 93.8119 196.045 94.1081L195.164 117.448C195.153 117.745 194.904 117.976 194.608 117.965Z" fill="#49146A"/>
<path d="M194.659 116.706L178.283 118.477C177.989 118.508 177.724 118.295 177.692 118L175.187 94.7786C175.155 94.4837 175.368 94.2186 175.663 94.1871L192.039 92.4164C192.333 92.3845 192.598 92.5976 192.63 92.893L195.135 116.115C195.167 116.41 194.954 116.675 194.659 116.706Z" fill="#49146A"/>
<path d="M175.177 107.426C175.19 107.114 175.329 106.82 175.562 106.612L175.869 106.336L175.883 106.191C175.938 105.641 176.387 105.214 176.938 105.187L178.928 105.089L177.879 103.468C177.809 103.359 177.787 103.226 177.819 103.101C177.897 102.796 178.249 102.656 178.515 102.824L184.182 106.404L202.899 105.449L209.99 105.447L210.845 108.473C211.512 110.836 209.586 113.127 207.146 112.873L184.182 110.478L177.653 111.483L177.362 111.404C176.861 111.269 176.512 110.816 176.507 110.297L176.503 109.894L176.492 109.888C176.064 109.697 175.794 109.265 175.808 108.796L175.816 108.559L175.575 108.35C175.309 108.119 175.163 107.779 175.177 107.426Z" fill="#FCBEB7"/>
<path d="M206.565 110.864C206.565 111.719 207.015 112.468 207.692 112.887C209.474 112.798 210.87 111.353 210.972 109.631C210.556 108.944 209.802 108.486 208.94 108.486C207.629 108.486 206.565 109.55 206.565 110.864Z" fill="#F9AFAB"/>
<path d="M167.143 104.26C168.289 105.606 170.353 105.844 171.781 104.682C171.653 103.49 170.644 102.562 169.42 102.562C168.343 102.562 167.435 103.278 167.143 104.26Z" fill="#F9AFAB"/>
<path d="M193.762 117.933C193.762 117.933 179.14 120.953 179.143 120.939C179.145 120.924 179.595 118.335 179.595 118.335L186.023 117.64L193.762 117.933Z" fill="#49146A"/>
<path d="M194.082 93.4966L194.034 105.901L192.69 93.4438L194.082 93.4966Z" fill="#2F3D6C"/>
<path d="M15.687 175.214C20.8163 165.812 4.62429 161.392 0.721202 165.121C-3.18275 168.85 9.7583 186.08 15.687 175.214Z" fill="#FE9ECC"/>
<path d="M22.4942 172.344C32.5597 172.344 28.0044 154.321 23.7009 154.321C18.3052 154.321 10.8648 172.344 22.4942 172.344Z" fill="#FE9ECC"/>
<path d="M30.252 178.882C38.5501 185.645 45.8441 170.513 42.8933 165.991C39.9426 161.468 20.6603 171.065 30.252 178.882Z" fill="#FE9ECC"/>
<path d="M19.6699 183.357C18.2692 180.112 16.219 177.089 13.5766 174.372C9.08097 169.75 4.3525 167.582 4.30499 167.56C4.16419 167.497 3.99831 167.56 3.93482 167.7C3.87133 167.841 3.934 168.007 4.0748 168.071C4.12102 168.092 8.76784 170.225 13.1896 174.777C15.7811 177.444 17.7902 180.41 19.1611 183.59C19.3166 183.951 19.4612 184.316 19.6003 184.682H20.1985C20.0331 184.237 19.8586 183.794 19.6699 183.357Z" fill="#FF78BA"/>
<path d="M23.4509 158.017C23.4691 157.863 23.3594 157.724 23.206 157.706C23.0523 157.687 22.9137 157.797 22.8951 157.95C22.8769 158.103 21.4655 170.182 21.5376 184.682H22.0969C22.0252 170.219 23.4328 158.169 23.4509 158.017Z" fill="#FF78BA"/>
<path d="M40.098 168.016C40.0121 167.887 39.8384 167.852 39.7102 167.938C39.67 167.965 35.6326 170.684 31.479 175.156C29.2167 177.591 26.6452 180.856 24.7612 184.683H25.3866C27.2282 181.025 29.6996 177.895 31.8798 175.547C35.9898 171.12 39.981 168.431 40.0211 168.404C40.1494 168.318 40.184 168.144 40.098 168.016Z" fill="#FF78BA"/>
<path d="M22.0972 184.682H21.5379H20.1986H19.6004H11.7929C11.4928 184.682 11.2798 184.976 11.3727 185.262L11.8655 186.776L12.1147 187.542L15.6826 198.501C15.7794 198.798 16.0567 199 16.3689 199H29.2296C29.5423 199 29.8192 198.798 29.9159 198.501L33.4843 187.542L33.7335 186.776L34.2263 185.262C34.3196 184.976 34.1067 184.682 33.8065 184.682H25.3853H24.7599H22.0972Z" fill="#F6D0FF"/>
<path d="M33.7344 186.776L33.4852 187.542H12.1152L11.866 186.776H33.7344Z" fill="#A854CF"/>
<path d="M61.3182 57.1762V74.9917C61.3182 75.6204 60.809 76.1302 60.181 76.1302H38.788C38.1601 76.1302 37.6509 75.6204 37.6509 74.9917V57.1762C37.6509 56.547 38.1601 56.0377 38.788 56.0377H60.181C60.809 56.0377 61.3182 56.547 61.3182 57.1762Z" fill="#F6D0FF"/>
<path d="M61.3182 57.1762V60.5345H37.6509V57.1762C37.6509 56.547 38.1596 56.0377 38.788 56.0377H60.181C60.809 56.0377 61.3182 56.547 61.3182 57.1762Z" fill="#6A2C91"/>
<path d="M44.065 57.4638C43.7406 57.4638 43.478 57.2004 43.478 56.8761V55.1997C43.478 54.875 43.7411 54.6122 44.065 54.6122C44.3893 54.6122 44.6519 54.8755 44.6519 55.1997V56.8761C44.6519 57.2004 44.3889 57.4638 44.065 57.4638Z" fill="#6A2C91"/>
<path d="M54.9039 57.4638C54.5796 57.4638 54.317 57.2004 54.317 56.8761V55.1997C54.317 54.875 54.58 54.6122 54.9039 54.6122C55.2283 54.6122 55.4909 54.8755 55.4909 55.1997V56.8761C55.4909 57.2004 55.2283 57.4638 54.9039 57.4638Z" fill="#6A2C91"/>
<path d="M44.4093 68.832L46.9355 66.5607C47.0642 66.4443 47.1925 66.3125 47.3212 66.165C47.4499 66.0176 47.5142 65.8463 47.5142 65.65C47.5142 65.4295 47.4348 65.2561 47.2754 65.1303C47.116 65.0045 46.9294 64.9417 46.7152 64.9417C46.4578 64.9417 46.2574 65.0217 46.1136 65.1808C45.9698 65.3404 45.8885 65.5367 45.87 65.7694L44.4922 65.6681C44.5108 65.3309 44.5808 65.0381 44.7034 64.7899C44.8257 64.5418 44.988 64.3347 45.1902 64.1691C45.3923 64.0035 45.6294 63.8794 45.902 63.7968C46.1745 63.7142 46.4699 63.6727 46.7882 63.6727C47.0824 63.6727 47.3579 63.7142 47.6149 63.7968C47.8718 63.8794 48.0956 64.0022 48.2856 64.1648C48.4752 64.3274 48.6238 64.531 48.7313 64.7761C48.8384 65.0213 48.892 65.3067 48.892 65.6314C48.892 65.8398 48.8704 66.0284 48.8276 66.197C48.7849 66.3656 48.7249 66.5187 48.6484 66.6566C48.572 66.7945 48.4813 66.9217 48.3772 67.0384C48.2731 67.1552 48.1599 67.2684 48.0373 67.3787L46.0622 69.0801H48.9464V70.2942H44.4084V68.832H44.4093Z" fill="#6A2C91"/>
<path d="M52.199 67.9676C52.1256 67.9858 52.0522 68.0013 51.9788 68.0134C51.9053 68.026 51.8285 68.0316 51.749 68.0316C51.4428 68.0316 51.1642 67.9762 50.9132 67.8659C50.6619 67.7557 50.4476 67.6052 50.2701 67.4154C50.0926 67.2256 49.9549 67.0003 49.8568 66.7396C49.7588 66.4789 49.71 66.2017 49.71 65.9072C49.71 65.57 49.7726 65.2651 49.8983 64.9923C50.024 64.7195 50.1955 64.4851 50.4127 64.2888C50.6299 64.0925 50.8856 63.9408 51.1798 63.8335C51.4739 63.7263 51.7922 63.6727 52.1351 63.6727C52.472 63.6727 52.7886 63.7263 53.0857 63.8335C53.3829 63.9408 53.6398 64.0925 53.8575 64.2888C54.0748 64.4851 54.2462 64.7195 54.3719 64.9923C54.4976 65.2651 54.5603 65.5704 54.5603 65.9072C54.5603 66.1403 54.5386 66.353 54.4959 66.5463C54.4531 66.7396 54.3961 66.9221 54.3262 67.0938C54.2558 67.2654 54.1728 67.4293 54.0782 67.5858C53.9832 67.7423 53.8839 67.9031 53.7798 68.0683L52.3558 70.2938H50.6748L52.199 67.9676ZM51.0878 65.9626C51.0878 66.2571 51.1841 66.5005 51.3771 66.6938C51.5702 66.8871 51.8224 66.9834 52.1351 66.9834C52.4478 66.9834 52.7001 66.8871 52.8931 66.6938C53.0862 66.5005 53.1825 66.2571 53.1825 65.9626C53.1825 65.6686 53.0862 65.4247 52.8931 65.2314C52.7001 65.0381 52.4478 64.9417 52.1351 64.9417C51.8224 64.9417 51.5702 65.0381 51.3771 65.2314C51.1841 65.4247 51.0878 65.6682 51.0878 65.9626Z" fill="#6A2C91"/>
<path d="M52.2033 73.7164H46.7657C46.6335 73.7164 46.5264 73.6091 46.5264 73.4766C46.5264 73.3441 46.6335 73.2368 46.7657 73.2368H52.2033C52.3355 73.2368 52.4425 73.3441 52.4425 73.4766C52.4425 73.6091 52.3355 73.7164 52.2033 73.7164Z" fill="#A854CF"/>
<path d="M239.173 161.376L238.202 169.44L237.036 179.123L236.302 185.211L236.052 187.275L235.319 193.365L234.7 198.499H233.233L234.587 187.277L235.319 181.187L235.568 179.123L236.302 173.035V173.034L236.789 168.994L237.706 161.376H239.173Z" fill="#F6D0FF"/>
<path d="M249 198.499H247.533L244.264 171.361L243.06 161.376H244.527L245.789 171.842L249 198.499Z" fill="#F6D0FF"/>
<path d="M229.542 161.376L228.924 166.504L226.421 187.275L225.688 193.365L225.069 198.499H223.602L224.954 187.277L225.688 181.187L227.511 166.057L228.075 161.376H229.542Z" fill="#F6D0FF"/>
<path d="M239.369 198.499H237.902L236.302 185.211L235.568 179.123L234.251 168.19L233.429 161.376H234.896L235.776 168.673L236.302 173.034V173.035L237.035 179.123L239.369 198.499Z" fill="#F6D0FF"/>
<path d="M245.517 161.375H226.481C225.848 161.375 225.336 160.861 225.336 160.228V160.162C225.336 159.528 225.848 159.015 226.481 159.015H245.517C246.15 159.015 246.663 159.529 246.663 160.162V160.228C246.663 160.862 246.15 161.375 245.517 161.375Z" fill="#F6D0FF"/>
<path d="M236.338 161.375H226.482C225.849 161.375 225.336 160.861 225.336 160.228V160.162C225.336 159.528 225.849 159.015 226.482 159.015H236.338C236.971 159.015 237.484 159.529 237.484 160.162V160.228C237.484 160.862 236.971 161.375 236.338 161.375Z" fill="#BB73DD"/>
<path d="M232.709 153.276H239.29C239.614 153.276 239.866 153.559 239.827 153.882L239.271 158.538C239.238 158.81 239.007 159.015 238.733 159.015H233.266C232.992 159.015 232.761 158.81 232.728 158.538L232.171 153.882C232.133 153.559 232.385 153.276 232.709 153.276Z" fill="#F6D0FF"/>
<path d="M238.259 151.376V149.259L236.993 151.666V147.757L235.999 150.218L235.005 147.757V151.666L233.74 149.259V151.376L231.897 148.409L232.709 153.276H235.999H239.29L240.102 148.409L238.259 151.376Z" fill="#FE9ECC"/>
<path d="M229.542 161.376L228.924 166.504L227.511 166.057L228.075 161.376H229.542Z" fill="#A854CF"/>
<path d="M235.776 168.673L234.251 168.19L233.429 161.376H234.896L235.776 168.673Z" fill="#A854CF"/>
<path d="M239.173 161.376L238.202 169.44L236.788 168.994L237.706 161.376H239.173Z" fill="#A854CF"/>
<path d="M245.789 171.842L244.264 171.361L243.06 161.376H244.527L245.789 171.842Z" fill="#A854CF"/>
</svg>
